<svg width="50" height="50" viewBox="0 0 50 50" fill="none" xmlns="http://www.w3.org/2000/svg">
<path d="M31.4731 39.2232C30.7464 39.2232 30.1158 38.683 30.0216 37.9433C29.9197 37.1407 30.4874 36.4075 31.2896 36.3053C35.9183 35.7155 40.0634 34.4613 42.961 32.7729C45.6111 31.2291 47.0702 29.414 47.0702 27.6623C47.0702 25.7317 45.3628 24.152 43.93 23.1663C43.2636 22.7078 43.0949 21.7961 43.5535 21.1293C44.012 20.4629 44.9241 20.2942 45.5905 20.7528C48.4752 22.7372 49.9999 25.1263 49.9999 27.6627C49.9999 30.5413 48.0762 33.1837 44.4362 35.3043C41.1597 37.2132 36.7419 38.5644 31.66 39.2117C31.5971 39.2193 31.5345 39.2232 31.4731 39.2232Z" fill="#495057"/>
<path d="M24.6429 37.1248L20.7367 33.2185C20.1645 32.6463 19.2371 32.6463 18.6649 33.2185C18.0931 33.7903 18.0931 34.7181 18.6649 35.2899L19.8063 36.4313C15.4301 35.9792 11.4544 34.9603 8.37593 33.4798C4.91486 31.8155 2.92969 29.6949 2.92969 27.6624C2.92969 25.9386 4.35104 24.1468 6.93169 22.6171C7.62787 22.2047 7.85751 21.306 7.44514 20.6102C7.03239 19.914 6.13365 19.6844 5.43785 20.0967C0.943375 22.7609 0 25.6814 0 27.6624C0 30.9125 2.5238 33.9162 7.1064 36.1204C10.6632 37.8305 15.2641 38.976 20.2766 39.4193L18.6649 41.031C18.0931 41.6028 18.0931 42.5306 18.6649 43.1028C18.951 43.3885 19.326 43.5316 19.701 43.5316C20.0756 43.5316 20.4506 43.3885 20.7367 43.1028L24.6429 39.1965C25.2148 38.6243 25.2148 37.6966 24.6429 37.1248Z" fill="#495057"/>
<path d="M15.3413 24.7287V24.3763C15.3413 23.1331 14.5803 22.892 13.5598 22.892C12.9289 22.892 12.7248 22.3354 12.7248 21.7788C12.7248 21.2219 12.9289 20.6653 13.5598 20.6653C14.2648 20.6653 15.0071 20.5726 15.0071 19.0696C15.0071 17.9935 14.3949 17.7337 13.6338 17.7337C12.7248 17.7337 12.2609 17.9565 12.2609 18.6802C12.2609 19.3107 11.9825 19.7376 10.9063 19.7376C9.57042 19.7376 9.40372 19.4591 9.40372 18.5684C9.40372 17.1215 10.4425 15.2473 13.6338 15.2473C15.9906 15.2473 17.7716 16.1007 17.7716 18.6058C17.7716 19.96 17.2708 21.2219 16.343 21.6488C17.4379 22.0569 18.2355 22.8733 18.2355 24.3763V24.7287C18.2355 27.7717 16.1389 28.9222 13.5411 28.9222C10.3498 28.9222 9.12524 26.9741 9.12524 25.4154C9.12524 24.5804 9.47772 24.3576 10.4982 24.3576C11.6857 24.3576 11.9825 24.6174 11.9825 25.3227C11.9825 26.1947 12.7992 26.3988 13.6338 26.3988C14.8957 26.3988 15.3413 25.935 15.3413 24.7287Z" fill="#495057"/>
<path d="M29.4986 24.3763V24.5433C29.4986 27.7347 27.513 28.9222 24.9526 28.9222C22.3922 28.9222 20.3879 27.7347 20.3879 24.5433V19.6262C20.3879 16.4348 22.4475 15.2473 25.1197 15.2473C28.2554 15.2473 29.4986 17.1955 29.4986 18.7355C29.4986 19.6262 29.0717 19.9043 28.144 19.9043C27.3463 19.9043 26.641 19.7002 26.641 18.8469C26.641 18.1419 25.899 17.7707 25.027 17.7707C23.9322 17.7707 23.2825 18.346 23.2825 19.6262V21.2959C23.8765 20.6466 24.7115 20.4796 25.6022 20.4796C27.7171 20.4796 29.4986 21.4073 29.4986 24.3763ZM23.2825 24.7474C23.2825 26.0276 23.9135 26.5842 24.9526 26.5842C25.9917 26.5842 26.604 26.0276 26.604 24.7474V24.5804C26.604 23.2258 25.9917 22.7062 24.9339 22.7062C23.9322 22.7062 23.2825 23.1888 23.2825 24.4133V24.7474Z" fill="#495057"/>
<path d="M31.7434 24.5433V19.6262C31.7434 16.4348 33.7286 15.2473 36.2894 15.2473C38.8498 15.2473 40.8537 16.4348 40.8537 19.6262V24.5433C40.8537 27.7347 38.8498 28.9222 36.2894 28.9222C33.7286 28.9222 31.7434 27.7347 31.7434 24.5433ZM37.9591 19.6262C37.9591 18.346 37.3285 17.7707 36.2894 17.7707C35.2503 17.7707 34.638 18.346 34.638 19.6262V24.5433C34.638 25.8236 35.2503 26.3988 36.2894 26.3988C37.3285 26.3988 37.9591 25.8236 37.9591 24.5433V19.6262Z" fill="#495057"/>
<path d="M44.3704 15.2344C41.9469 15.2344 39.9758 13.2629 39.9758 10.8398C39.9758 8.41675 41.9469 6.44531 44.3704 6.44531C46.7935 6.44531 48.7649 8.41675 48.7649 10.8398C48.7649 13.2629 46.7935 15.2344 44.3704 15.2344ZM44.3704 9.375C43.5624 9.375 42.9055 10.0323 42.9055 10.8398C42.9055 11.6478 43.5624 12.3047 44.3704 12.3047C45.1779 12.3047 45.8352 11.6478 45.8352 10.8398C45.8352 10.0323 45.1779 9.375 44.3704 9.375Z" fill="#495057"/>
</svg>
