<svg width="19" height="19" viewBox="0 0 19 19" fill="none" xmlns="http://www.w3.org/2000/svg">
<path d="M18.4375 16.5139V13.0708C18.4375 12.9878 18.4046 12.9082 18.346 12.8495C18.2874 12.7908 18.2079 12.7578 18.125 12.7578H17.5653C17.9293 12.2332 18.1246 11.6098 18.125 10.971V10.5667C18.125 10.4837 18.0921 10.4041 18.0335 10.3454C17.9749 10.2867 17.8954 10.2537 17.8125 10.2537V9.62766H18.125C18.2079 9.62766 18.2874 9.59468 18.346 9.53598C18.4046 9.47728 18.4375 9.39766 18.4375 9.31464C18.4375 9.23163 18.4046 9.15201 18.346 9.09331C18.2874 9.03461 18.2079 9.00163 18.125 9.00163H17.8125C17.8124 8.84395 17.7726 8.68883 17.6969 8.55058C17.6212 8.41234 17.5119 8.29542 17.3792 8.21061C17.861 7.64589 18.1255 6.92734 18.125 6.18453V4.30646C18.1257 3.58013 17.8731 2.87637 17.4107 2.31684C17.3983 2.29894 17.384 2.2824 17.3681 2.2675C16.9525 1.7824 16.3986 1.43645 15.7809 1.27622C15.1631 1.11598 14.5112 1.14915 13.9128 1.37126C13.3144 1.59337 12.7983 1.99375 12.434 2.51853C12.0697 3.0433 11.8746 3.66727 11.875 4.30646V6.18453C11.8751 6.33803 11.8864 6.49132 11.9089 6.64317C11.9093 6.64778 11.9099 6.6524 11.9106 6.65698C11.9862 7.15331 12.1805 7.62396 12.477 8.02879C12.4879 8.04708 12.5006 8.06419 12.515 8.07985C12.904 8.59245 13.4415 8.97229 14.054 9.1675C14.6666 9.36271 15.3243 9.36377 15.9375 9.17054V9.31464C15.9375 9.39766 15.9704 9.47728 16.029 9.53598C16.0876 9.59468 16.1671 9.62766 16.25 9.62766C16.3329 9.62766 16.4124 9.59468 16.471 9.53598C16.5296 9.47728 16.5625 9.39766 16.5625 9.31464V9.00163C16.5625 8.95953 16.571 8.91785 16.5875 8.87913C16.6859 8.82093 16.7811 8.75737 16.8726 8.68874C16.8734 8.68874 16.8741 8.68874 16.8749 8.68874C16.9578 8.68883 17.0372 8.72184 17.0958 8.78052C17.1544 8.8392 17.1873 8.91876 17.1874 9.00175V10.2538H12.1875C12.1046 10.2538 12.0251 10.2868 11.9665 10.3455C11.9079 10.4042 11.875 10.4838 11.875 10.5668V10.9711C11.8754 11.6099 12.0707 12.2333 12.4347 12.7578H11.875C11.7921 12.7578 11.7126 12.7908 11.654 12.8495C11.5954 12.9082 11.5625 12.9878 11.5625 13.0708V16.5139H9.62305C10.2745 15.7302 10.6817 14.7719 10.7938 13.7582L10.9356 12.4793C10.9404 12.4356 10.936 12.3913 10.9226 12.3494C10.9092 12.3074 10.8872 12.2688 10.8579 12.236C10.8285 12.2032 10.7927 12.177 10.7525 12.159C10.7124 12.141 10.669 12.1317 10.625 12.1317H4.375V8.68862H9.375C9.45788 8.68862 9.53737 8.65564 9.59597 8.59694C9.65458 8.53824 9.6875 8.45862 9.6875 8.37561V7.12356C9.6875 7.04055 9.65458 6.96093 9.59597 6.90223C9.53737 6.84353 9.45788 6.81055 9.375 6.81055H8.75V6.18453C8.75016 5.96469 8.6925 5.7487 8.5828 5.55829C8.47311 5.36789 8.31527 5.20979 8.12517 5.09993C7.93507 4.99007 7.71942 4.93231 7.49995 4.93249C7.28048 4.93266 7.06493 4.99076 6.875 5.10092V4.61947C6.875 4.53645 6.84208 4.45684 6.78347 4.39814C6.72487 4.33943 6.64538 4.30646 6.5625 4.30646H5.3125C5.22962 4.30646 5.15013 4.33943 5.09153 4.39814C5.03292 4.45684 5 4.53645 5 4.61947V6.81055H4.375V3.05441H6.32812C6.72167 3.05396 7.09897 2.89718 7.37725 2.61844C7.65552 2.33971 7.81206 1.96179 7.8125 1.5676V0.550316C7.8125 0.467301 7.77958 0.387685 7.72097 0.328984C7.66237 0.270283 7.58288 0.237305 7.5 0.237305H6.25C6.16712 0.237305 6.08763 0.270283 6.02903 0.328984C5.97042 0.387685 5.9375 0.467301 5.9375 0.550316V1.17634H4.375V0.550316C4.375 0.467301 4.34208 0.387685 4.28347 0.328984C4.22487 0.270283 4.14538 0.237305 4.0625 0.237305H0.3125C0.22962 0.237305 0.150134 0.270283 0.0915291 0.328984C0.032924 0.387685 0 0.467301 0 0.550316V15.5749C0 15.6579 0.032924 15.7375 0.0915291 15.7962C0.150134 15.8549 0.22962 15.8879 0.3125 15.8879H1.1807C1.31416 16.1074 1.4637 16.3166 1.62809 16.5139H0.3125C0.22962 16.5139 0.150134 16.5469 0.0915291 16.6056C0.032924 16.6643 0 16.7439 0 16.8269V18.079C0 18.162 0.032924 18.2416 0.0915291 18.3003C0.150134 18.359 0.22962 18.392 0.3125 18.392H18.4375C18.5204 18.392 18.5999 18.359 18.6585 18.3003C18.7171 18.2416 18.75 18.162 18.75 18.079V16.8269C18.75 16.7439 18.7171 16.6643 18.6585 16.6056C18.5999 16.5469 18.5204 16.5139 18.4375 16.5139ZM4.375 1.80236H6.25C6.33288 1.80236 6.41237 1.76939 6.47097 1.71068C6.52958 1.65198 6.5625 1.57237 6.5625 1.48935V0.863328H7.1875V1.5676C7.18724 1.79582 7.09662 2.01461 6.93551 2.17598C6.7744 2.33736 6.55597 2.42813 6.32812 2.42839H4.375V1.80236ZM6.875 6.18453C6.875 6.0185 6.94085 5.85926 7.05806 5.74186C7.17527 5.62446 7.33424 5.5585 7.5 5.5585C7.66576 5.5585 7.82473 5.62446 7.94194 5.74186C8.05915 5.85926 8.125 6.0185 8.125 6.18453V6.81055H6.875V6.18453ZM5.625 4.93248H6.25V6.81055H5.625V4.93248ZM4.375 7.43657H9.0625V8.0626H4.375V7.43657ZM12.5 4.30646C12.4996 3.82478 12.6381 3.35324 12.8987 2.94844C13.1593 2.54364 13.5311 2.22279 13.9693 2.02442C14.4075 1.82605 14.8936 1.75858 15.3691 1.83012C15.8447 1.90166 16.2895 2.10917 16.6502 2.42772L12.5 4.83439V4.30646ZM12.5 6.08644V5.55776L17.0719 2.90655C17.1573 3.03323 17.231 3.16749 17.2919 3.30764L12.5 6.08644ZM12.5696 6.76947L17.4713 3.92693C17.4904 4.05253 17.5 4.1794 17.5 4.30646V4.75199L12.8449 7.45148C12.7199 7.23906 12.6271 7.00921 12.5696 6.76947ZM16.605 8.10247C16.4267 8.15648 16.2684 8.26238 16.1502 8.40671C15.6786 8.65239 15.141 8.74072 14.6158 8.65882C14.0905 8.57691 13.6052 8.32905 13.2305 7.9514L17.5 5.4754V6.18453C17.5 6.55034 17.4199 6.9117 17.2653 7.2431C17.1106 7.5745 16.8853 7.86786 16.605 8.10247ZM12.5 10.8797H17.5V10.971C17.4998 11.3037 17.4335 11.633 17.305 11.9397C17.1765 12.2465 16.9883 12.5245 16.7515 12.7578H13.2485C13.0117 12.5245 12.8235 12.2465 12.695 11.9397C12.5665 11.633 12.5002 11.3037 12.5 10.971V10.8797ZM12.1875 13.3838H17.8125V16.5139H17.1875V14.3228C17.1875 14.2398 17.1546 14.1602 17.096 14.1015C17.0374 14.0428 16.9579 14.0098 16.875 14.0098H13.125C13.0421 14.0098 12.9626 14.0428 12.904 14.1015C12.8454 14.1602 12.8125 14.2398 12.8125 14.3228V16.5139H12.1875V13.3838ZM16.5625 14.6358V16.5139H13.4375V14.6358H16.5625ZM6.875 12.7578H8.75V13.3838H6.875V12.7578ZM6.875 14.0098H8.75V14.6358H6.875V14.0098ZM3.125 0.863328H3.75V15.2619H3.125V0.863328ZM1.875 0.863328H2.5V15.2619H1.875V0.863328ZM0.625 0.863328H1.25V15.2619H0.625V0.863328ZM1.93141 15.8879H4.0625C4.14538 15.8879 4.22487 15.8549 4.28347 15.7962C4.34208 15.7375 4.375 15.6579 4.375 15.5749V12.7578H6.25V14.9489C6.25 15.0319 6.28292 15.1115 6.34153 15.1702C6.40013 15.2289 6.47962 15.2619 6.5625 15.2619H9.0625C9.14538 15.2619 9.22487 15.2289 9.28347 15.1702C9.34208 15.1115 9.375 15.0319 9.375 14.9489V12.7578H10.2759L10.1725 13.689C10.0534 14.7677 9.55536 15.7689 8.76742 16.5139H2.48438C2.28143 16.3225 2.09634 16.113 1.93141 15.8879ZM18.125 17.766H0.625V17.1399H18.125V17.766Z" fill="#000"/>
</svg>
