<svg width="50" height="49" viewBox="0 0 50 49" fill="none" xmlns="http://www.w3.org/2000/svg">
<g clip-path="url(#clip0)">
<path d="M49.9758 10.195C49.927 9.65713 49.6747 9.25781 49.219 8.99703L35.303 0.293515C34.6845 -0.0976547 34.0823 -0.0650572 33.4963 0.391307L25.0003 7.28566L16.5042 0.391307C15.9182 -0.0650572 15.316 -0.0976547 14.6975 0.293515L0.781502 8.99703C0.325773 9.29041 0.0734947 9.69788 0.0246666 10.2194C-0.0241615 10.741 0.163013 11.1811 0.58619 11.5396L8.64283 18.2873L1.75806 23.7637C1.33489 24.0896 1.13144 24.5134 1.14771 25.035C1.16399 25.5565 1.39999 25.964 1.85572 26.2574L8.2522 30.5602C7.89413 30.8536 7.7151 31.2285 7.7151 31.6848V37.9924C7.7151 38.5466 7.95924 38.9867 8.44752 39.3126L24.1702 48.2117C24.4306 48.3747 24.7073 48.4562 25.0003 48.4562C25.1305 48.4562 25.2688 48.4399 25.4153 48.4073C25.5618 48.3747 25.7001 48.3095 25.8303 48.2117L41.3577 39.3126C41.846 38.9867 42.0901 38.5466 42.0901 37.9924V30.3158L48.1448 26.2574C48.568 25.964 48.7958 25.5565 48.8284 25.035C48.8284 24.7742 48.7795 24.5297 48.6819 24.3015C48.5842 24.0733 48.4377 23.8941 48.2424 23.7637L41.3577 18.2873L49.4143 11.5396C49.8375 11.1811 50.0247 10.7328 49.9758 10.195ZM35.9866 18.3362L25.0003 25.1817L14.0139 18.3362L25.0003 11.1485L35.9866 18.3362ZM4.2483 10.5128L15.3811 3.52066L22.3635 9.14372L11.2307 16.3803L4.2483 10.5128ZM11.2307 20.2431L22.2659 27.1864L16.0159 31.9782L5.37135 24.8883L11.2307 20.2431ZM10.8401 32.2716L15.1858 35.2054C15.4788 35.3684 15.788 35.4498 16.1135 35.4498C16.4391 35.4498 16.7483 35.3521 17.0413 35.1565L23.3401 30.3158V44.1045L10.8401 37.1123V32.2716ZM38.9651 37.1123L26.4651 44.2023V30.1691L32.9592 35.1565C33.0894 35.2543 33.2359 35.3276 33.3987 35.3765C33.5614 35.4254 33.7242 35.4498 33.887 35.4498C34.0497 35.4498 34.2043 35.4254 34.3508 35.3765C34.4973 35.3276 34.6357 35.2706 34.7659 35.2054L38.9651 32.3694V37.1123ZM44.5803 24.8394L33.9358 31.9782L27.7346 27.1864L38.7698 20.2431L44.5803 24.8394ZM38.7698 16.3803L27.637 9.14372L34.6194 3.52066L45.7522 10.5128L38.7698 16.3803Z" fill="#495057"/>
</g>
<defs>
<clipPath id="clip0">
<rect width="50" height="48.505" fill="white"/>
</clipPath>
</defs>
</svg>
