<svg width="32" height="37" viewBox="0 0 32 37" fill="none" xmlns="http://www.w3.org/2000/svg">
<path d="M15.9995 0.462402C12.1974 0.462402 9.07644 3.58983 9.07644 7.3999V8.7874H2.23921L2.15337 10.0889L0.76875 35.0639L0.681519 36.5374H31.3161L31.2303 35.0625L29.8457 10.0875L29.7584 8.7874H22.9226V7.3999C22.9226 3.58983 19.8017 0.462402 15.9995 0.462402ZM15.9995 3.2374C17.1012 3.2374 18.1577 3.67595 18.9367 4.45657C19.7157 5.23719 20.1534 6.29594 20.1534 7.3999V8.7874H11.8457V7.3999C11.8457 6.29594 12.2833 5.23719 13.0623 4.45657C13.8413 3.67595 14.8979 3.2374 15.9995 3.2374ZM4.83536 11.5624H9.07644V15.7249H11.8457V11.5624H20.1534V15.7249H22.9226V11.5624H27.1637L28.3752 33.7624H3.62521L4.83536 11.5624Z" fill="#0E4E7F"/>
</svg>
