<svg width="29" height="29" viewBox="0 0 29 29" fill="none" xmlns="http://www.w3.org/2000/svg">
<path d="M14.5 13.6504C15.9054 13.6504 17.0488 12.507 17.0488 11.1016C17.0488 9.69614 15.9054 8.55273 14.5 8.55273C13.0946 8.55273 11.9512 9.69614 11.9512 11.1016C11.9512 12.507 13.0946 13.6504 14.5 13.6504ZM14.5 10.252C14.9685 10.252 15.3496 10.6331 15.3496 11.1016C15.3496 11.57 14.9685 11.9512 14.5 11.9512C14.0315 11.9512 13.6504 11.57 13.6504 11.1016C13.6504 10.6331 14.0315 10.252 14.5 10.252Z" fill="#0664F9"/>
<path d="M18.748 17.8984C18.748 19.3039 19.8915 20.4473 21.2969 20.4473C22.7023 20.4473 23.8457 19.3039 23.8457 17.8984C23.8457 16.493 22.7023 15.3496 21.2969 15.3496C19.8915 15.3496 18.748 16.493 18.748 17.8984ZM22.1465 17.8984C22.1465 18.3669 21.7653 18.748 21.2969 18.748C20.8284 18.748 20.4473 18.3669 20.4473 17.8984C20.4473 17.43 20.8284 17.0488 21.2969 17.0488C21.7653 17.0488 22.1465 17.43 22.1465 17.8984Z" fill="#0664F9"/>
<path d="M13.2959 17.8982L21.2931 9.90102L22.4944 11.1024L14.4972 19.0995L13.2959 17.8982Z" fill="#0664F9"/>
<path d="M28.1504 13.6504H29V5.1543C27.9248 5.1543 0.942896 5.1543 0 5.1543V13.6504H0.849609C1.31808 13.6504 1.69922 14.0315 1.69922 14.5C1.69922 14.9685 1.31808 15.3496 0.849609 15.3496H0V23.8457H29V15.3496H28.1504C27.6819 15.3496 27.3008 14.9685 27.3008 14.5C27.3008 14.0315 27.6819 13.6504 28.1504 13.6504ZM27.3008 12.0967C26.3118 12.4474 25.6016 13.3923 25.6016 14.5C25.6016 15.6077 26.3118 16.5526 27.3008 16.9033V22.1465H8.55273V20.4473H6.85352V22.1465H1.69922V16.9033C2.68822 16.5526 3.39844 15.6077 3.39844 14.5C3.39844 13.3923 2.68822 12.4474 1.69922 12.0967V6.85352H6.85352V8.55273H8.55273V6.85352H27.3008V12.0967Z" fill="#0664F9"/>
<path d="M6.85352 15.3496H8.55273V18.748H6.85352V15.3496Z" fill="#0664F9"/>
<path d="M6.85352 10.252H8.55273V13.6504H6.85352V10.252Z" fill="#0664F9"/>
</svg>
