<svg width="25" height="25" viewBox="0 0 25 25" fill="none" xmlns="http://www.w3.org/2000/svg">
<g clip-path="url(#clip0)">
<path d="M3.66116 3.66116C6.02207 1.30024 9.16119 0 12.5 0C15.8388 0 18.9779 1.30024 21.3388 3.66116C23.6998 6.02207 25 9.16119 25 12.5C25 15.839 23.6998 18.9779 21.3388 21.3388C18.9779 23.6998 15.8388 25 12.5 25C9.16119 25 6.02207 23.6998 3.66116 21.3388C1.30024 18.9779 0 15.839 0 12.5C0 9.16119 1.30024 6.02207 3.66116 3.66116ZM7.09343 16.18C6.61678 16.6569 6.61678 17.4297 7.09343 17.9064C7.33185 18.1448 7.64427 18.264 7.9567 18.264C8.26912 18.264 8.58154 18.1448 8.81996 17.9064L12.5 14.2263L16.18 17.9066C16.4185 18.1448 16.7309 18.264 17.0433 18.264C17.3557 18.264 17.6682 18.1448 17.9066 17.9066C18.3832 17.4297 18.3832 16.6569 17.9066 16.1802L14.2263 12.5L17.9066 8.81996C18.3832 8.34312 18.3832 7.57027 17.9066 7.09362C17.4297 6.61678 16.6569 6.61678 16.1802 7.09362L12.5 10.7737L8.81996 7.09362C8.34312 6.61697 7.57027 6.61678 7.09362 7.09362C6.61678 7.57027 6.61678 8.34312 7.09362 8.81996L10.7737 12.5L7.09343 16.18Z" fill="#8C8C8C"/>
</g>
<defs>
<clipPath id="clip0">
<rect width="25" height="25" fill="white" transform="matrix(-1 0 0 1 25 0)"/>
</clipPath>
</defs>
</svg>
