<svg width="20" height="21" viewBox="0 0 20 21" fill="none" xmlns="http://www.w3.org/2000/svg">
<g clip-path="url(#clip0)">
<path d="M18.0001 0H2.00012C1.44879 0 1.00012 0.45202 1.00012 1.00746V17.7985C1.00012 18.354 1.44879 18.806 2.00012 18.806H18.0001C18.5514 18.806 19.0001 18.354 19.0001 17.7985V1.00746C19.0001 0.45202 18.5514 0 18.0001 0ZM18.3334 17.7985C18.3334 17.9839 18.1841 18.1343 18.0001 18.1343H2.00012C1.81645 18.1343 1.6668 17.9839 1.6668 17.7985V1.00746C1.6668 0.82242 1.81645 0.671655 2.00012 0.671655H18.0001C18.1841 0.671655 18.3334 0.82242 18.3334 1.00746V17.7985Z" fill="#000"/>
<path d="M12.3332 5.70898C9.39253 5.70898 6.99988 8.1195 6.99988 11.0821C6.99988 14.0447 9.39253 16.4552 12.3332 16.4552C15.2739 16.4552 17.6666 14.0447 17.6666 11.0821C17.6666 8.1195 15.2739 5.70898 12.3332 5.70898ZM12.3332 15.7836C9.75988 15.7836 7.66652 13.6747 7.66652 11.0821C7.66652 8.48954 9.75984 6.3806 12.3332 6.3806C14.9066 6.3806 16.9999 8.48958 16.9999 11.0821C16.9999 13.6746 14.9066 15.7836 12.3332 15.7836Z" fill="#000"/>
<path d="M4.99988 18.1343H2.3332C2.14921 18.1343 1.99988 18.2847 1.99988 18.4701V19.4775C1.99988 19.8486 2.2982 20.1492 2.66656 20.1492H4.66656C5.03488 20.1492 5.33324 19.8487 5.33324 19.4775V18.4701C5.3332 18.2847 5.18386 18.1343 4.99988 18.1343ZM4.66656 19.4775H2.66656V18.8059H4.66656V19.4775Z" fill="#000"/>
<path d="M17.6666 18.1343H14.9999C14.816 18.1343 14.6666 18.2847 14.6666 18.4701V19.4775C14.6666 19.8486 14.9649 20.1492 15.3333 20.1492H17.3333C17.7016 20.1492 18 19.8487 18 19.4775V18.4701C17.9999 18.2847 17.8506 18.1343 17.6666 18.1343ZM17.3333 19.4775H15.3333V18.8059H17.3333V19.4775Z" fill="#000"/>
<path d="M18.6668 15.7837H1.33344C1.14946 15.7837 1.00012 15.9341 1.00012 16.1195C1.00012 16.3049 1.14946 16.4553 1.33344 16.4553H18.6668C18.8507 16.4553 19.0001 16.3049 19.0001 16.1195C19.0001 15.9341 18.8508 15.7837 18.6668 15.7837Z" fill="#000"/>
<path d="M18.6668 4.36572H1.33344C1.14946 4.36572 1.00012 4.51617 1.00012 4.70153C1.00012 4.88689 1.14946 5.03738 1.33344 5.03738H18.6668C18.8507 5.03738 19.0001 4.88693 19.0001 4.70157C19.0001 4.51621 18.8508 4.36572 18.6668 4.36572Z" fill="#000"/>
<path d="M16.1667 1.34326C15.5223 1.34326 15 1.8695 15 2.51865C15 3.16779 15.5223 3.69403 16.1667 3.69403C16.811 3.69403 17.3333 3.16779 17.3333 2.51865C17.3333 1.8695 16.811 1.34326 16.1667 1.34326ZM16.1667 3.02238C15.8907 3.02238 15.6667 2.79672 15.6667 2.51865C15.6667 2.24057 15.8907 2.01492 16.1667 2.01492C16.4427 2.01492 16.6667 2.24057 16.6667 2.51865C16.6667 2.79672 16.4427 3.02238 16.1667 3.02238Z" fill="#000"/>
<path d="M2.66657 1.34326C2.48259 1.34326 2.33325 1.49371 2.33325 1.67907V3.35819C2.33325 3.54354 2.48259 3.69399 2.66657 3.69399C2.85056 3.69399 2.99989 3.54354 2.99989 3.35819V1.67911C2.99989 1.49371 2.85056 1.34326 2.66657 1.34326Z" fill="#000"/>
<path d="M4.00007 1.34326C3.81608 1.34326 3.66675 1.49371 3.66675 1.67907V3.35819C3.66675 3.54354 3.81608 3.69399 4.00007 3.69399C4.18405 3.69399 4.33339 3.54354 4.33339 3.35819V1.67911C4.33339 1.49371 4.18405 1.34326 4.00007 1.34326Z" fill="#000"/>
<path d="M5.33332 1.34326C5.14934 1.34326 5 1.49371 5 1.67907V3.35819C5 3.54354 5.14934 3.69399 5.33332 3.69399C5.5173 3.69399 5.66664 3.54354 5.66664 3.35819V1.67911C5.66668 1.49371 5.51734 1.34326 5.33332 1.34326Z" fill="#000"/>
<path d="M6.66669 1.34326C6.48271 1.34326 6.33337 1.49371 6.33337 1.67907V3.35819C6.33337 3.54354 6.48271 3.69399 6.66669 3.69399C6.85068 3.69399 7.00002 3.54354 7.00002 3.35819V1.67911C7.00002 1.49371 6.85068 1.34326 6.66669 1.34326Z" fill="#000"/>
<path d="M10.15 15.2396C9.72465 15.0122 9.33668 14.7201 9 14.3732C8.68398 14.0481 8.41668 13.6787 8.20602 13.2764C7.00367 10.9797 7.87703 8.13595 10.1567 6.92467C10.2163 6.89311 10.265 6.84407 10.2964 6.78398C10.3824 6.61975 10.3197 6.41657 10.1567 6.33027C9.38934 5.92224 8.535 5.70898 7.6677 5.70898C4.72234 5.70863 2.33398 8.1141 2.33398 11.0814C2.33363 14.0491 4.72098 16.4549 7.66664 16.4552C8.53199 16.4529 9.38398 16.24 10.15 15.8339C10.2096 15.8024 10.2583 15.7533 10.2896 15.6933C10.3757 15.529 10.313 15.3259 10.15 15.2396ZM7.66766 15.7836C5.09031 15.7839 3.00098 13.6793 3.00066 11.0828C3.00035 8.4862 5.08934 6.38095 7.66668 6.3806C8.22066 6.37926 8.77066 6.47832 9.29 6.67276C9.01699 6.86418 8.76234 7.08114 8.53 7.32088C8.32199 7.53446 8.13199 7.76519 7.96199 8.01064C6.27734 10.445 6.87031 13.7941 9.28664 15.4914C8.76832 15.6845 8.22035 15.7836 7.66766 15.7836Z" fill="#000"/>
<path d="M8.99999 7.79104C9.03764 7.75275 9.066 7.70576 9.08198 7.65436C9.13698 7.47739 9.03897 7.289 8.86331 7.23359C8.47565 7.11336 8.07229 7.05225 7.66663 7.05225C5.45764 7.05225 3.66663 8.85663 3.66663 11.0821C3.66663 13.3076 5.45764 15.112 7.66663 15.112C8.07128 15.1116 8.47331 15.0505 8.85995 14.9306C8.91163 14.9148 8.95893 14.8863 8.99729 14.848C9.12831 14.7177 9.12928 14.5051 8.99995 14.3732C7.22132 12.5449 7.22131 9.61927 8.99999 7.79104ZM7.67932 14.4403C5.83866 14.4436 4.34331 12.9432 4.33967 11.0885C4.33635 9.23407 5.82569 7.72756 7.66667 7.7239C7.82632 7.72492 7.98565 7.73701 8.143 7.76085C6.61999 9.71065 6.61999 12.457 8.143 14.4068C7.98932 14.4289 7.83432 14.44 7.67932 14.4403Z" fill="#000"/>
<path d="M12.3332 5.70898C9.39253 5.70898 6.99988 8.1195 6.99988 11.0821C6.99988 14.0447 9.39253 16.4552 12.3332 16.4552C15.2739 16.4552 17.6666 14.0447 17.6666 11.0821C17.6666 8.1195 15.2739 5.70898 12.3332 5.70898ZM12.3332 15.7836C9.75988 15.7836 7.66652 13.6747 7.66652 11.0821C7.66652 8.48954 9.75984 6.3806 12.3332 6.3806C14.9066 6.3806 16.9999 8.48958 16.9999 11.0821C16.9999 13.6746 14.9066 15.7836 12.3332 15.7836Z" fill="#000"/>
<path d="M12.333 7.05225C11.9267 7.0526 11.5237 7.11403 11.134 7.23528C9.88104 7.62953 8.8994 8.61853 8.50803 9.88089C8.18971 10.9085 8.28737 11.9992 8.78338 12.9526C9.2794 13.9064 10.114 14.6079 11.1351 14.9289C11.5237 15.0498 11.9267 15.1116 12.3334 15.112C14.5391 15.112 16.3334 13.3043 16.3334 11.0821C16.3333 8.85997 14.539 7.05225 12.333 7.05225ZM12.3333 14.4403C11.9933 14.4399 11.6567 14.3886 11.3323 14.2878C10.4827 14.0202 9.78698 13.4355 9.37366 12.6413C8.96034 11.8464 8.87901 10.9373 9.14432 10.081C9.47034 9.02923 10.2887 8.20512 11.3317 7.87703C11.657 7.77561 11.9937 7.72422 12.3333 7.7239C14.1714 7.7239 15.6667 9.23041 15.6667 11.0821C15.6667 12.9338 14.1717 14.44 12.3333 14.4403Z" fill="#000"/>
<path d="M12.3335 7.05225C11.9279 7.05358 11.5245 7.11572 11.1368 7.23693C9.88316 7.63118 8.90148 8.62019 8.51016 9.88322C7.85215 12.0076 9.02816 14.2674 11.1368 14.9306C11.5245 15.0508 11.9279 15.112 12.3335 15.112C14.5425 15.112 16.3335 13.3076 16.3335 11.0821C16.3335 8.85663 14.5425 7.05225 12.3335 7.05225ZM12.3335 14.4403C11.9945 14.4403 11.6575 14.3896 11.3335 14.2892C10.2895 13.9604 9.47184 13.137 9.14586 12.0852C8.59687 10.3151 9.57621 8.43145 11.3335 7.87837C11.6572 7.77695 11.9945 7.72489 12.3335 7.7239C14.1745 7.7239 15.6668 9.22738 15.6668 11.0821C15.6669 12.9369 14.1745 14.4403 12.3335 14.4403Z" fill="#000"/>
<path d="M18.6668 11.082H1.33344C1.14946 11.082 1.00012 11.2325 1.00012 11.4178C1.00012 11.6032 1.14946 11.7536 1.33344 11.7536H18.6668C18.8507 11.7536 19.0001 11.6032 19.0001 11.4178C19.0001 11.2325 18.8508 11.082 18.6668 11.082Z" fill="#000"/>
</g>
<defs>
<clipPath id="clip0">
<rect width="20" height="20.1493" fill="#000"/>
</clipPath>
</defs>
</svg>
