<svg width="20" height="20" viewBox="0 0 20 20" fill="none" xmlns="http://www.w3.org/2000/svg">
<path d="M16.971 0H3.02905C1.35884 0 0 1.35884 0 3.02905V16.971C0 18.6412 1.35884 20 3.02905 20H16.971C18.6412 20 20 18.6412 20 16.971V3.02905C20 1.35884 18.6412 0 16.971 0ZM19.2531 16.971C19.2531 18.2293 18.2293 19.2531 16.971 19.2531H3.02905C1.77066 19.2531 0.746888 18.2293 0.746888 16.971V3.02905C0.746888 1.77066 1.77066 0.746888 3.02905 0.746888H16.971C18.2293 0.746888 19.2531 1.77066 19.2531 3.02905V16.971ZM9.3361 5.68465C9.3361 5.89091 9.16892 6.05809 8.96266 6.05809C8.75639 6.05809 8.58921 5.89091 8.58921 5.68465C8.58921 4.08307 7.28622 2.78008 5.68465 2.78008C4.08307 2.78008 2.78008 4.08307 2.78008 5.68465C2.78008 8.19768 5.76241 9.5066 7.61656 7.85361C7.7705 7.71639 8.0066 7.72992 8.14382 7.88386C8.28108 8.0378 8.26751 8.27386 8.11357 8.41112C5.78245 10.4892 2.0332 8.84448 2.0332 5.68465C2.0332 3.67124 3.67124 2.0332 5.68465 2.0332C7.69805 2.0332 9.3361 3.67124 9.3361 5.68465ZM4.31535 5.68465C4.31535 6.43967 4.92963 7.05394 5.68465 7.05394C6.43967 7.05394 7.05394 6.43967 7.05394 5.68465C7.05394 4.92963 6.43967 4.31535 5.68465 4.31535C4.92963 4.31535 4.31535 4.92963 4.31535 5.68465ZM6.30705 5.68465C6.30705 6.02784 6.02784 6.30705 5.68465 6.30705C5.34145 6.30705 5.06224 6.02784 5.06224 5.68465C5.06224 5.34145 5.34145 5.06224 5.68465 5.06224C6.02784 5.06224 6.30705 5.34145 6.30705 5.68465ZM13.112 5.68465C13.112 6.43967 13.7263 7.05394 14.4813 7.05394C15.2363 7.05394 15.8506 6.43967 15.8506 5.68465C15.8506 4.92963 15.2363 4.31535 14.4813 4.31535C13.7263 4.31535 13.112 4.92963 13.112 5.68465ZM15.1037 5.68465C15.1037 6.02784 14.8245 6.30705 14.4813 6.30705C14.1381 6.30705 13.8589 6.02784 13.8589 5.68465C13.8589 5.34145 14.1381 5.06224 14.4813 5.06224C14.8245 5.06224 15.1037 5.34145 15.1037 5.68465ZM17.2515 3.30564C19.2735 5.65817 17.5957 9.3361 14.4813 9.3361C12.4679 9.3361 10.8299 7.69805 10.8299 5.68465C10.8299 3.67124 12.4679 2.0332 14.4813 2.0332C14.6876 2.0332 14.8548 2.20037 14.8548 2.40664C14.8548 2.6129 14.6876 2.78008 14.4813 2.78008C12.8798 2.78008 11.5768 4.08307 11.5768 5.68465C11.5768 7.28622 12.8798 8.58921 14.4813 8.58921C16.9654 8.58921 18.2902 5.65988 16.6851 3.79245C16.5506 3.63602 16.5684 3.40025 16.7249 3.26585C16.8812 3.13141 17.117 3.14921 17.2515 3.30564ZM5.68465 13.112C4.92963 13.112 4.31535 13.7263 4.31535 14.4813C4.31535 15.2363 4.92963 15.8506 5.68465 15.8506C6.43967 15.8506 7.05394 15.2363 7.05394 14.4813C7.05394 13.7263 6.43967 13.112 5.68465 13.112ZM5.68465 15.1037C5.34145 15.1037 5.06224 14.8245 5.06224 14.4813C5.06224 14.1381 5.34145 13.8589 5.68465 13.8589C6.02784 13.8589 6.30705 14.1381 6.30705 14.4813C6.30705 14.8245 6.02784 15.1037 5.68465 15.1037ZM8.26664 17.0633C8.12075 17.2091 7.88436 17.2091 7.73846 17.0633C7.59261 16.9174 7.59261 16.681 7.73846 16.5351C9.56386 14.7098 8.25486 11.5768 5.68465 11.5768C4.08307 11.5768 2.78008 12.8798 2.78008 14.4813C2.78008 16.0829 4.08307 17.3859 5.68465 17.3859C5.89091 17.3859 6.05809 17.5531 6.05809 17.7593C6.05809 17.9656 5.89091 18.1328 5.68465 18.1328C3.67124 18.1328 2.0332 16.4947 2.0332 14.4813C2.0332 12.4679 3.67124 10.8299 5.68465 10.8299C8.91743 10.8299 10.5606 14.7693 8.26664 17.0633ZM13.4025 15.7676C12.9678 15.7676 12.6141 16.1213 12.6141 16.556C12.6141 16.9907 12.9678 17.3444 13.4025 17.3444C13.8372 17.3444 14.1909 16.9907 14.1909 16.556C14.1909 16.1213 13.8372 15.7676 13.4025 15.7676ZM16.3071 15.7676C15.8723 15.7676 15.5187 16.1213 15.5187 16.556C15.5187 16.9907 15.8723 17.3444 16.3071 17.3444C16.7418 17.3444 17.0954 16.9907 17.0954 16.556C17.0954 16.1213 16.7418 15.7676 16.3071 15.7676ZM16.3071 12.8631C15.8723 12.8631 15.5187 13.2167 15.5187 13.6515C15.5187 14.0862 15.8723 14.4398 16.3071 14.4398C16.7418 14.4398 17.0954 14.0862 17.0954 13.6515C17.0954 13.2167 16.7418 12.8631 16.3071 12.8631Z" fill="white"/>
</svg>
