<svg width="20" height="20" viewBox="0 0 20 20" fill="none" xmlns="http://www.w3.org/2000/svg">
<path d="M19.6774 12.9838H18.0645V11.6935C18.0645 11.6076 18.0307 11.5257 17.97 11.4654L13.1313 6.62669C13.071 6.56604 12.9891 6.53218 12.9032 6.53218H12.2581V0.403147C12.2581 0.224688 12.1139 0.0805664 11.9355 0.0805664H8.06452C7.88606 0.0805664 7.74194 0.224688 7.74194 0.403147V6.53218H6.77419C6.68835 6.53218 6.60645 6.56604 6.54612 6.62669L1.70741 11.4654C1.64677 11.5257 1.6129 11.6076 1.6129 11.6935V12.9838H0.322581C0.144122 12.9838 0 13.1279 0 13.3064V15.2419C0 15.4203 0.144122 15.5644 0.322581 15.5644H19.6774C19.8559 15.5644 20 15.4203 20 15.2419V13.3064C20 13.1279 19.8559 12.9838 19.6774 12.9838ZM8.3871 0.725728H11.6129V8.46766H8.3871V0.725728ZM2.25806 11.827L6.90776 7.17734H7.74194V8.79024C7.74194 8.9687 7.88606 9.11283 8.06452 9.11283H11.9355C12.1139 9.11283 12.2581 8.9687 12.2581 8.79024V7.17734H12.7697L17.4194 11.827V12.9838H2.25806V11.827ZM19.3548 14.9193H0.645161V13.629H19.3548V14.9193Z" fill="#000"/>
<path d="M7.23039 17.8226C7.14423 17.7361 7.09682 17.6219 7.09682 17.5C7.09682 17.3781 7.14423 17.2639 7.23039 17.1774L7.64747 16.7603L7.19133 16.3042L6.77424 16.7213C6.56617 16.9294 6.45166 17.2058 6.45166 17.5C6.45166 17.7942 6.56617 18.071 6.77424 18.2787L6.96325 18.4678C7.04941 18.5542 7.09682 18.6684 7.09682 18.7903C7.09682 18.9123 7.04941 19.0264 6.96325 19.1129L6.54617 19.53L7.00231 19.9862L7.4194 19.5691C7.62747 19.361 7.74198 19.0846 7.74198 18.7903C7.74198 18.4961 7.62747 18.2194 7.4194 18.0116L7.23039 17.8226Z" fill="#000"/>
<path d="M9.16569 17.8226C9.07954 17.7361 9.03212 17.6219 9.03212 17.5C9.03212 17.3781 9.07954 17.2639 9.16569 17.1774L9.58278 16.7603L9.12663 16.3042L8.70954 16.7213C8.50147 16.9294 8.38696 17.2058 8.38696 17.5C8.38696 17.7942 8.50147 18.071 8.70954 18.2787L8.89856 18.4678C8.98471 18.5542 9.03212 18.6684 9.03212 18.7903C9.03212 18.9123 8.98471 19.0264 8.89856 19.1129L8.48147 19.53L8.93762 19.9862L9.35471 19.5691C9.56278 19.361 9.67729 19.0846 9.67729 18.7903C9.67729 18.4961 9.56278 18.2194 9.35471 18.0116L9.16569 17.8226Z" fill="#000"/>
<path d="M11.1014 17.8226C11.0152 17.7361 10.9678 17.6219 10.9678 17.5C10.9678 17.3781 11.0152 17.2639 11.1014 17.1774L11.5184 16.7603L11.0623 16.3042L10.6452 16.7213C10.4371 16.9294 10.3226 17.2058 10.3226 17.5C10.3226 17.7942 10.4371 18.071 10.6452 18.2787L10.8342 18.4678C10.9204 18.5542 10.9678 18.6684 10.9678 18.7903C10.9678 18.9123 10.9204 19.0264 10.8342 19.1129L10.4171 19.53L10.8733 19.9862L11.2904 19.5691C11.4984 19.361 11.613 19.0846 11.613 18.7903C11.613 18.4961 11.4984 18.2194 11.2904 18.0116L11.1014 17.8226Z" fill="#000"/>
<path d="M13.0368 17.8226C12.9506 17.7361 12.9032 17.6219 12.9032 17.5C12.9032 17.3781 12.9506 17.2639 13.0368 17.1774L13.4539 16.7603L12.9977 16.3042L12.5806 16.7213C12.3726 16.9294 12.2581 17.2058 12.2581 17.5C12.2581 17.7942 12.3726 18.071 12.5806 18.2787L12.7696 18.4678C12.8558 18.5542 12.9032 18.6684 12.9032 18.7903C12.9032 18.9123 12.8558 19.0264 12.7696 19.1129L12.3526 19.53L12.8087 19.9862L13.2258 19.5691C13.4339 19.361 13.5484 19.0846 13.5484 18.7903C13.5484 18.4961 13.4339 18.2194 13.2258 18.0116L13.0368 17.8226Z" fill="#000"/>
<path d="M15.4838 11.6936H16.1289V12.3388H15.4838V11.6936Z" fill="#000"/>
<path d="M14.1936 11.6936H14.8388V12.3388H14.1936V11.6936Z" fill="#000"/>
<path d="M12.9032 11.6936H13.5484V12.3388H12.9032V11.6936Z" fill="#000"/>
</svg>
