<svg width="17" height="17" viewBox="0 0 17 17" fill="none" xmlns="http://www.w3.org/2000/svg">
<path d="M15.985 0.625H1.265C0.911 0.625 0.625 0.911 0.625 1.265V15.985C0.625 16.339 0.911 16.625 1.265 16.625H15.985C16.339 16.625 16.625 16.339 16.625 15.985V1.265C16.625 0.911 16.339 0.625 15.985 0.625ZM14.137 5.295H12.859C11.857 5.295 11.663 5.771 11.663 6.471V8.013H14.055L13.743 10.427H11.663V16.625H9.169V10.429H7.083V8.013H9.169V6.233C9.169 4.167 10.431 3.041 12.275 3.041C13.159 3.041 13.917 3.107 14.139 3.137V5.295H14.137Z" fill="#0058A7"/>
</svg>
