<svg width="20" height="20" viewBox="0 0 20 20" fill="none" xmlns="http://www.w3.org/2000/svg">
<g clip-path="url(#clip0)">
<path d="M19.4434 10.414H19.072V9.96798C19.072 9.57424 18.7517 9.25391 18.358 9.25391H11.1716C10.7779 9.25391 10.4575 9.57424 10.4575 9.96798V10.414H5.40402C5.24256 10.414 5.11167 10.5449 5.11167 10.7063C5.11167 10.8678 5.24256 10.9987 5.40402 10.9987H19.3943V11.6341H0.606022V10.9987H4.23462C4.39608 10.9987 4.52697 10.8678 4.52697 10.7063C4.52697 10.5449 4.39608 10.414 4.23462 10.414H0.556946C0.261634 10.414 0.0213623 10.6543 0.0213623 10.9496V19.2158C0.0213623 19.6483 0.373195 20.0001 0.805677 20.0001H19.1948C19.6272 20.0001 19.9791 19.6483 19.9791 19.2158V10.9496C19.979 10.6543 19.7388 10.414 19.4434 10.414ZM11.0422 9.96798C11.0422 9.89665 11.1003 9.83861 11.1716 9.83861H18.358C18.4293 9.83861 18.4873 9.89665 18.4873 9.96798V10.414H11.0422V9.96798ZM10.0768 12.2188V19.4154H5.72607V12.2188H10.0768ZM0.606022 19.2158V12.2188H5.14133V19.4154H0.805677C0.695598 19.4154 0.606022 19.3259 0.606022 19.2158ZM19.1947 19.4154H10.6615V12.2188H19.3943V19.2158C19.3944 19.3259 19.3048 19.4154 19.1947 19.4154Z" fill="white"/>
<path d="M0.556946 6.50844H8.49013C8.78545 6.50844 9.02572 6.26817 9.02572 5.97286V0.639627C9.02572 0.344276 8.78545 0.104004 8.49013 0.104004H0.556946C0.261634 0.104004 0.0213623 0.344276 0.0213623 0.639627V5.97282C0.0213623 6.26817 0.261634 6.50844 0.556946 6.50844ZM8.44098 5.92374H4.81585V0.688741H8.44098V5.92374ZM0.606022 0.688741H4.23115V5.92374H0.606022V0.688741Z" fill="white"/>
<path d="M10.564 6.50843H14.8566C15.018 6.50843 15.1489 6.37754 15.1489 6.21608C15.1489 6.05463 15.018 5.92374 14.8566 5.92374H10.6131V5.17142H18.4871V5.92374H16.026C15.8645 5.92374 15.7336 6.05463 15.7336 6.21608C15.7336 6.37754 15.8645 6.50843 16.026 6.50843H18.5362C18.8315 6.50843 19.0718 6.26816 19.0718 5.97285V5.12235C19.0718 4.83705 18.8474 4.6038 18.5659 4.58825L17.1183 1.81985L17.0546 0.280265C17.0481 0.123644 16.9193 0 16.7625 0H12.3916C12.3132 0 12.2381 0.0314958 12.1832 0.0873539C12.1282 0.143251 12.098 0.218833 12.0993 0.297222L12.1248 1.82777L10.6821 4.58669H10.564C10.2687 4.58669 10.0284 4.82696 10.0284 5.12231V5.97281C10.0284 6.26816 10.2687 6.50843 10.564 6.50843ZM16.482 0.584698L16.5242 1.60496H12.7059L12.6889 0.584698H16.482ZM12.5954 2.18966H16.6519L17.9053 4.58673H11.3419L12.5954 2.18966Z" fill="white"/>
<path d="M9.1726 14.2508C9.33405 14.2508 9.46495 14.1199 9.46495 13.9584V13.2755C9.46495 13.114 9.33405 12.9832 9.1726 12.9832C9.01114 12.9832 8.88025 13.114 8.88025 13.2755V13.9584C8.88025 14.1199 9.01114 14.2508 9.1726 14.2508Z" fill="white"/>
<path d="M18.4977 12.9832C18.3362 12.9832 18.2053 13.114 18.2053 13.2755V13.9584C18.2053 14.1199 18.3362 14.2508 18.4977 14.2508C18.6591 14.2508 18.79 14.1199 18.79 13.9584V13.2755C18.79 13.114 18.6591 12.9832 18.4977 12.9832Z" fill="white"/>
<path d="M4.28051 12.9832C4.11905 12.9832 3.98816 13.114 3.98816 13.2755V13.9584C3.98816 14.1199 4.11905 14.2508 4.28051 14.2508C4.44196 14.2508 4.57286 14.1199 4.57286 13.9584V13.2755C4.57286 13.114 4.44196 12.9832 4.28051 12.9832Z" fill="white"/>
<path d="M3.37121 3.90381C3.20975 3.90381 3.07886 4.0347 3.07886 4.19616V4.87905C3.07886 5.0405 3.20975 5.1714 3.37121 5.1714C3.53266 5.1714 3.66356 5.0405 3.66356 4.87905V4.19616C3.66356 4.0347 3.53266 3.90381 3.37121 3.90381Z" fill="white"/>
<path d="M5.64342 5.1714C5.80488 5.1714 5.93577 5.0405 5.93577 4.87905V4.19616C5.93577 4.0347 5.80488 3.90381 5.64342 3.90381C5.48197 3.90381 5.35107 4.0347 5.35107 4.19616V4.87905C5.35107 5.0405 5.48197 5.1714 5.64342 5.1714Z" fill="white"/>
</g>
<defs>
<clipPath id="clip0">
<rect width="20" height="20" fill="white"/>
</clipPath>
</defs>
</svg>
