<svg width="35" height="44" viewBox="0 0 35 44" fill="none" xmlns="http://www.w3.org/2000/svg">
<path d="M22.0308 34.3508L25.3341 31.0418L26.1817 30.8137L28.9416 41.1136L24.4149 39.6748L21.2145 43.1843L18.6016 33.4352L22.0308 34.3508Z" fill="#0E4B8A"/>
<path d="M26.624 32.4635L26.2193 32.5719L22.5424 36.2548L19.1121 35.3386L18.6016 33.4352L22.0308 34.3506L25.3338 31.0417L26.1817 30.8137L26.624 32.4635Z" fill="#FEE45A"/>
<path d="M22.2136 34.168L23.8539 40.2896L21.2145 43.1843L18.6016 33.4353L22.0308 34.3507L22.2136 34.168Z" fill="#0E4B8A"/>
<path d="M9.6892 31.0552L12.9982 34.3585L16.3952 33.4455L13.7856 43.1843L10.5852 39.6748L6.05859 41.1135L8.81673 30.8223L9.6892 31.0552Z" fill="#0E4B8A"/>
<path d="M16.3952 33.4455L15.8846 35.3505L12.4895 36.2642L8.8066 32.5873L8.37451 32.472L8.81678 30.8223L9.68951 31.0554L12.9984 34.3583L16.3952 33.4455Z" fill="#FEE45A"/>
<path d="M12.3203 33.6814L10.6842 39.7843L10.5852 39.675L6.05859 41.1138L8.81673 30.8225L9.68946 31.0557L12.3203 33.6814Z" fill="#0E4B8A"/>
<path d="M26.624 32.4635L26.2193 32.5719L22.5424 36.2548L19.1121 35.3386L18.6016 33.4352L22.0308 34.3506L25.3338 31.0417L26.1817 30.8137L26.624 32.4635Z" fill="#0E4C87"/>
<path d="M16.3952 33.4455L15.8846 35.3505L12.4895 36.2642L8.8066 32.5873L8.37451 32.472L8.81678 30.8223L9.68951 31.0554L12.9984 34.3583L16.3952 33.4455Z" fill="#0E4B8A"/>
<path d="M12.8018 14.1855V25.47H7.47342C5.73147 23.2823 4.69141 20.5122 4.69141 17.4996C4.69141 16.3537 4.84171 15.2427 5.12435 14.1856H12.8018V14.1855Z" fill="#8AC9FE"/>
<path d="M12.8018 14.1855V25.47H7.47342C5.73147 23.2823 4.69141 20.5122 4.69141 17.4996C4.69141 16.3537 4.84171 15.2427 5.12435 14.1856H12.8018V14.1855Z" fill="#0E4D80"/>
<path d="M22.6545 22.4953H23.3113C24.0368 22.4953 24.625 23.0834 24.625 23.809C24.625 24.5345 24.0369 25.1227 23.3113 25.1227H16.2654C15.9106 25.1227 15.5672 25.0025 15.2856 24.7866C14.5429 24.2171 13.757 24.0965 12.8018 24.0398V15.6861C15.0482 13.1194 17.895 12.8782 17.6958 9.04271C17.6613 8.379 18.1902 7.82178 18.8549 7.82178C19.3632 7.82178 19.8152 8.15175 19.9635 8.63793C20.5664 10.6142 20.7173 12.5756 19.9212 14.6132H24.7254C25.4509 14.6132 26.0391 15.2014 26.0391 15.927C26.0391 16.6525 25.451 17.2407 24.7254 17.2407H23.0912H24.2806C25.0061 17.2407 25.5943 17.8288 25.5943 18.5544C25.5943 19.2799 25.0062 19.8681 24.2806 19.8681H23.0912H23.8439C24.5694 19.8681 25.1576 20.4562 25.1576 21.1818C25.1576 21.9073 24.5695 22.4955 23.8439 22.4955H22.6545V22.4953Z" fill="#FFF3DE"/>
<path d="M22.6545 22.4953H23.3113C24.0368 22.4953 24.625 23.0834 24.625 23.809C24.625 24.5345 24.0369 25.1227 23.3113 25.1227H16.2654C15.9106 25.1227 15.5672 25.0025 15.2856 24.7866C14.5429 24.2171 13.757 24.0965 12.8018 24.0398V15.6861C15.0482 13.1194 17.895 12.8782 17.6958 9.04271C17.6613 8.379 18.1902 7.82178 18.8549 7.82178C19.3632 7.82178 19.8152 8.15175 19.9635 8.63793C20.5664 10.6142 20.7173 12.5756 19.9212 14.6132H24.7254C25.4509 14.6132 26.0391 15.2014 26.0391 15.927C26.0391 16.6525 25.451 17.2407 24.7254 17.2407H23.0912H24.2806C25.0061 17.2407 25.5943 17.8288 25.5943 18.5544C25.5943 19.2799 25.0062 19.8681 24.2806 19.8681H23.0912H23.8439C24.5694 19.8681 25.1576 20.4562 25.1576 21.1818C25.1576 21.9073 24.5695 22.4955 23.8439 22.4955H22.6545V22.4953Z" fill="#0E4B8A"/>
<path d="M20.4485 12.2815C19.5741 13.3007 18.2458 13.9676 17.0146 15.1745C16.7063 15.4767 16.5303 15.889 16.5303 16.3207V22.6245C16.5303 23.367 17.0323 24.024 17.7544 24.1965C18.3423 24.3369 18.8739 24.5993 19.3945 25.1225H16.2656C15.9109 25.1225 15.5676 25.0025 15.286 24.7867C14.5433 24.2174 13.7573 24.0967 12.8022 24.0398V15.6864C15.0502 13.1177 17.8995 12.8781 17.6956 9.03449C17.661 8.37412 18.1935 7.82178 18.8549 7.82178C19.109 7.82178 19.3497 7.90429 19.5447 8.04758C19.7396 8.19086 19.8898 8.39424 19.9638 8.63767C20.3339 9.8509 20.5336 11.0582 20.4485 12.2815Z" fill="#104C88"/>
<path d="M34.978 21.8348L33.8089 17.4858L34.9706 13.1351C35.0297 12.9135 34.9662 12.6772 34.8039 12.5152L31.6165 9.33358L30.4475 4.98458C30.3879 4.76306 30.2146 4.59016 29.993 4.53102L25.6424 3.36932L22.4549 0.187666C22.2926 0.0256347 22.0561 -0.03762 21.8348 0.0221254L17.4857 1.19118L13.1351 0.0295721C12.9136 -0.0294885 12.6772 0.0338519 12.5151 0.196311L9.33363 3.38361L4.98455 4.55276C4.76303 4.61225 4.59021 4.78549 4.53098 5.0071L3.36928 9.35781L0.187715 12.5452C0.0255977 12.7075 -0.0374859 12.9439 0.0220026 13.1654L1.19115 17.5136L0.47112 20.2106C0.379705 20.5531 0.58325 20.9049 0.925801 20.9964C1.26835 21.0881 1.62015 20.8843 1.71165 20.5417L2.4761 17.6786C2.5052 17.5697 2.50512 17.4551 2.47584 17.3463L1.35823 13.1899L4.39942 10.1431C4.47911 10.0634 4.53629 9.96408 4.5653 9.85529L5.6759 5.69639L9.83308 4.57886C9.94187 4.54959 10.0412 4.49224 10.1208 4.41247L13.162 1.36571L17.3207 2.47614C17.4295 2.50524 17.5441 2.50507 17.653 2.47588L21.8102 1.35835L24.857 4.39963C24.9368 4.47923 25.036 4.53641 25.1448 4.56551L29.3036 5.67594L30.4212 9.83312C30.4504 9.94191 30.5079 10.0412 30.5876 10.1208L33.6344 13.1621L32.5239 17.3208C32.4948 17.4297 32.4949 17.5443 32.5242 17.6531L33.6418 21.8103L30.6005 24.8572C30.5209 24.937 30.4637 25.0363 30.4346 25.145L29.3241 29.3038L25.1671 30.4212C25.0582 30.4505 24.9588 30.5079 24.8792 30.5877L21.838 33.6344L17.6797 32.5233C17.5705 32.4942 17.4558 32.4942 17.3468 32.5236L13.1898 33.6419L10.143 30.6006C10.0632 30.521 9.96387 30.4638 9.85508 30.4347L8.98509 30.2023C8.98449 30.2021 8.98398 30.2018 8.98338 30.2017C8.98278 30.2016 8.98218 30.2015 8.98158 30.2013L5.69644 29.3235L4.57883 25.1671C4.54947 25.0583 4.49212 24.959 4.41234 24.8794L2.24765 22.719C1.9966 22.4686 1.5901 22.469 1.33982 22.72C1.08937 22.9709 1.0898 23.3773 1.34077 23.6278L3.38366 25.6667L4.55272 30.0147C4.61229 30.2362 4.78545 30.4091 5.00697 30.4682L8.03088 31.2762L5.43931 40.9461C5.37854 41.1726 5.44633 41.4144 5.61598 41.5765C5.78563 41.7385 6.03018 41.7953 6.25384 41.724L10.3883 40.4098L13.3114 43.6153C13.4346 43.7504 13.6076 43.8247 13.7858 43.8247C13.8363 43.8247 13.8873 43.8187 13.9375 43.8065C14.1656 43.751 14.3451 43.5755 14.4058 43.3489L16.9195 33.9679L17.5143 33.8079L18.0775 33.9584L20.5939 43.3489C20.6546 43.5755 20.8342 43.7509 21.0622 43.8065C21.1125 43.8187 21.1635 43.8247 21.214 43.8247C21.3922 43.8247 21.5652 43.7504 21.6883 43.6153L24.6117 40.4097L28.7462 41.724C28.9698 41.7953 29.2145 41.7385 29.384 41.5765C29.5537 41.4144 29.6215 41.1727 29.5607 40.9461L28.5198 37.0618C28.4282 36.7194 28.076 36.5162 27.7336 36.6078C27.3911 36.6996 27.1879 37.0517 27.2797 37.3941L28.0167 40.145L24.6088 39.0616C24.3701 38.9857 24.1089 39.0556 23.94 39.2408L21.5303 41.8832L19.5092 34.3411L21.8648 34.9705C22.0862 35.0296 22.3228 34.9662 22.4849 34.8038L25.6664 31.6165L25.7272 31.6001L26.5299 34.5968C26.6067 34.8837 26.8662 35.0729 27.1496 35.0729C27.2046 35.0729 27.2605 35.0658 27.316 35.0509C27.6585 34.9591 27.8618 34.6072 27.77 34.2647L26.967 31.2669L30.0154 30.4474C30.2369 30.3878 30.4097 30.2147 30.4689 29.9931L31.6306 25.6424L34.8123 22.455C34.9744 22.2927 35.0375 22.0563 34.978 21.8348ZM13.4694 41.8832L11.06 39.2409C10.891 39.0558 10.63 38.9859 10.3912 39.0617L6.98328 40.1449L9.27132 31.6076L9.35786 31.6307L12.5452 34.8122C12.6671 34.934 12.8309 34.9999 12.9987 34.9999C13.0543 34.9999 13.1103 34.9927 13.1654 34.9779L15.4871 34.3534L13.4694 41.8832Z" fill="#0E4B8A"/>
<path d="M17.5003 5.33447C19.285 5.33447 21.0039 5.71186 22.609 6.45611C22.9309 6.60538 23.3124 6.46535 23.4615 6.14377C23.6107 5.8221 23.4708 5.44043 23.1492 5.29133C21.3735 4.46799 19.473 4.05054 17.5004 4.05054C11.4262 4.05054 6.08966 8.13822 4.51282 13.9942C4.51222 13.9962 4.51171 13.9982 4.51111 14.0003C4.50931 14.007 4.50735 14.0136 4.50555 14.0202C4.20383 15.1497 4.05078 16.3205 4.05078 17.5001C4.05078 20.5759 5.06106 23.4701 6.97223 25.8695C6.97352 25.8712 6.97489 25.8727 6.97608 25.8742C6.97797 25.8765 6.97985 25.8789 6.98182 25.8813C9.55019 29.1025 13.3831 30.9497 17.5003 30.9497C24.9164 30.9497 30.9499 24.9163 30.9499 17.5001C30.9499 13.4879 29.1775 9.7148 26.0874 7.14823C25.8147 6.92174 25.4099 6.95915 25.1833 7.23194C24.9567 7.50473 24.9942 7.90943 25.267 8.136C28.0626 10.4579 29.6659 13.871 29.6659 17.5002C29.6659 24.2084 24.2085 29.6658 17.5003 29.6658C14.2405 29.6658 11.1776 28.3856 8.90608 26.1119H12.8024C13.157 26.1119 13.4443 25.8245 13.4443 25.47V24.7423C14.0217 24.8201 14.4682 24.9685 14.8954 25.2959C15.2894 25.598 15.7761 25.7644 16.2656 25.7644H23.3112C24.3895 25.7644 25.2668 24.8872 25.2668 23.8088C25.2668 23.4307 25.1589 23.0773 24.9724 22.7778C25.4724 22.4232 25.7993 21.8399 25.7993 21.1817C25.7993 20.7831 25.6795 20.4121 25.474 20.1026C25.9371 19.7446 26.236 19.1838 26.236 18.5545C26.236 18.1577 26.1171 17.7881 25.9133 17.4796C26.3795 17.1219 26.6807 16.5591 26.6807 15.9273C26.6807 14.849 25.8034 13.9717 24.7251 13.9717H20.8105C21.2784 12.2701 21.2001 10.4919 20.5776 8.4515C20.3457 7.69142 19.6535 7.18075 18.855 7.18075C18.3631 7.18075 17.8867 7.38541 17.5479 7.74217C17.2091 8.09902 17.0293 8.58554 17.0548 9.07695C17.1724 11.3385 16.1675 12.0885 14.6463 13.2237C14.2642 13.5088 13.8555 13.8142 13.4432 14.1652C13.4319 13.8205 13.1497 13.5444 12.8023 13.5444H5.99234C7.66435 8.67045 12.2811 5.33447 17.5003 5.33447ZM15.4141 14.2525C16.9959 13.072 18.4902 11.9571 18.3371 9.01027C18.3296 8.86681 18.3799 8.73037 18.4789 8.62612C18.5777 8.52195 18.7113 8.4646 18.8549 8.4646C19.0812 8.4646 19.2846 8.61319 19.3494 8.82607C19.9907 10.9279 19.9824 12.6927 19.3232 14.3801C19.2461 14.5776 19.2715 14.8005 19.3911 14.9757C19.5106 15.1508 19.7091 15.2556 19.9212 15.2556H24.7249C25.0953 15.2556 25.3966 15.5568 25.3966 15.9272C25.3966 16.2976 25.0953 16.5989 24.7249 16.5989H23.0908C22.7362 16.5989 22.4489 16.8863 22.4489 17.2408C22.4489 17.5954 22.7362 17.8828 23.0908 17.8828H24.2802C24.6505 17.8828 24.9519 18.1841 24.9519 18.5544C24.9519 18.9248 24.6505 19.2261 24.2802 19.2261H23.0908C22.7362 19.2261 22.4489 19.5135 22.4489 19.868C22.4489 20.2226 22.7362 20.51 23.0908 20.51H23.8435C24.2139 20.51 24.5151 20.8113 24.5151 21.1817C24.5151 21.552 24.2139 21.8533 23.8435 21.8533H22.654C22.2994 21.8533 22.0121 22.1407 22.0121 22.4953C22.0121 22.8498 22.2994 23.1372 22.654 23.1372H23.3109C23.6813 23.1372 23.9826 23.4385 23.9826 23.8089C23.9826 24.1793 23.6813 24.4806 23.3109 24.4806H16.2654C16.0567 24.4806 15.8474 24.4082 15.6762 24.277C14.9492 23.7195 14.1871 23.5306 13.4441 23.4482V15.9335C14.0765 15.2514 14.7556 14.7441 15.4141 14.2525ZM12.1604 15.8338C12.1604 15.8344 12.1603 15.8349 12.1603 15.8355V24.1885C12.1603 24.1891 12.1604 24.1896 12.1604 24.1901V24.8278H7.78915C6.18244 22.7064 5.33462 20.1796 5.33462 17.5C5.33462 16.5974 5.43468 15.701 5.63018 14.8282H12.1604V15.8338Z" fill="#0E4C87"/>
</svg>
