<svg width="20" height="17" viewBox="0 0 20 17" fill="none" xmlns="http://www.w3.org/2000/svg">
<path d="M19.1211 1.09521H4.77891C4.61707 1.09521 4.48594 1.22733 4.48594 1.39037C4.48594 1.55341 4.61707 1.68553 4.77891 1.68553H14.0625V3.67684C14.0625 3.83988 14.1936 3.97199 14.3555 3.97199C14.5173 3.97199 14.6484 3.83988 14.6484 3.67684V1.68553H19.1211C19.2827 1.68553 19.4141 1.81791 19.4141 1.98068V13.7869C19.4141 13.9497 19.2827 14.082 19.1211 14.082H14.6484V4.96332C14.6484 4.80028 14.5173 4.66817 14.3555 4.66817C14.1936 4.66817 14.0625 4.80028 14.0625 4.96332V14.082H0.878906C0.717344 14.082 0.585938 13.9497 0.585938 13.7869V1.98068C0.585938 1.81791 0.717344 1.68553 0.878906 1.68553H3.50234C3.66418 1.68553 3.79531 1.55341 3.79531 1.39037C3.79531 1.22733 3.66418 1.09521 3.50234 1.09521H0.878906C0.394297 1.09521 0 1.49245 0 1.98068V13.7869C0 14.2751 0.394297 14.6723 0.878906 14.6723H1.43555V14.7707C1.43555 15.3675 1.91746 15.853 2.50977 15.853H3.68164C4.27395 15.853 4.75586 15.3675 4.75586 14.7707V14.6723H15.2441V14.7707C15.2441 15.3675 15.7261 15.853 16.3184 15.853H17.4902C18.0825 15.853 18.5645 15.3675 18.5645 14.7707V14.6723H19.1211C19.6057 14.6723 20 14.2751 20 13.7869V1.98068C20 1.49245 19.6057 1.09521 19.1211 1.09521ZM4.16992 14.7707C4.16992 15.042 3.9509 15.2627 3.68164 15.2627H2.50977C2.24051 15.2627 2.02148 15.042 2.02148 14.7707V14.6723H4.16992V14.7707ZM17.9785 14.7707C17.9785 15.042 17.7595 15.2627 17.4902 15.2627H16.3184C16.0491 15.2627 15.8301 15.042 15.8301 14.7707V14.6723H17.9785V14.7707Z" fill="#000"/>
<path d="M1.5625 2.96508V12.8036C1.5625 12.9666 1.69363 13.0987 1.85547 13.0987H12.793C12.9548 13.0987 13.0859 12.9666 13.0859 12.8036V2.96508C13.0859 2.80203 12.9548 2.66992 12.793 2.66992H1.85547C1.69363 2.66992 1.5625 2.80203 1.5625 2.96508ZM2.14844 12.5084V11.2822H12.5V12.5084H2.14844ZM12.5 3.26023V10.6918H10.1364C10.2728 10.5079 10.3683 10.2896 10.4081 10.049L10.6358 8.67432C10.6449 8.4698 10.5486 8.3552 10.3469 8.3306H7.9625C7.80066 8.3306 7.66953 8.46271 7.66953 8.62576C7.66953 8.7888 7.80066 8.92091 7.9625 8.92091H10.001L9.83016 9.95187C9.7593 10.3807 9.39473 10.6918 8.96332 10.6918H5.6852C5.25379 10.6918 4.88922 10.3807 4.81832 9.95179L4.64754 8.92091H6.68602C6.84785 8.92091 6.97898 8.7888 6.97898 8.62576C6.97898 8.46271 6.84785 8.3306 6.68602 8.3306H4.30164C4.09988 8.35524 4.00355 8.4698 4.0127 8.67432L4.24039 10.0489C4.2802 10.2896 4.3757 10.5079 4.51215 10.6918H2.14844V3.26023H12.5Z" fill="#000"/>
<path d="M18.0078 6.80209C18.1696 6.80209 18.3008 6.66998 18.3008 6.50694V2.96508C18.3008 2.80203 18.1696 2.66992 18.0078 2.66992H16.0547C15.8929 2.66992 15.7617 2.80203 15.7617 2.96508V6.50694C15.7617 6.66998 15.8929 6.80209 16.0547 6.80209H18.0078ZM16.3477 3.26023H17.7148V6.21178H16.3477V3.26023Z" fill="#000"/>
<path d="M17.0312 10.1474C17.7313 10.1474 18.3008 9.57362 18.3008 8.86836C18.3008 8.1631 17.7313 7.58936 17.0312 7.58936C16.3312 7.58936 15.7617 8.1631 15.7617 8.86836C15.7617 9.57362 16.3312 10.1474 17.0312 10.1474ZM17.0312 8.17967C17.4082 8.17967 17.7148 8.48863 17.7148 8.86836C17.7148 9.24809 17.4082 9.55705 17.0312 9.55705C16.6543 9.55705 16.3477 9.24809 16.3477 8.86836C16.3477 8.48863 16.6543 8.17967 17.0312 8.17967Z" fill="#000"/>
<path d="M16.0547 11.6758H18.0078C18.1696 11.6758 18.3008 11.5436 18.3008 11.3806C18.3008 11.2176 18.1696 11.0854 18.0078 11.0854H16.0547C15.8929 11.0854 15.7617 11.2176 15.7617 11.3806C15.7617 11.5436 15.8929 11.6758 16.0547 11.6758Z" fill="#000"/>
<path d="M16.0547 13.0991H18.0078C18.1696 13.0991 18.3008 12.967 18.3008 12.8039C18.3008 12.6409 18.1696 12.5088 18.0078 12.5088H16.0547C15.8929 12.5088 15.7617 12.6409 15.7617 12.8039C15.7617 12.967 15.8929 13.0991 16.0547 13.0991Z" fill="#000"/>
<path d="M8.03098 6.02071C8.40739 6.34915 8.38489 6.44876 8.04258 6.75289C7.92126 6.86068 7.90962 7.04722 8.01665 7.16949C8.15094 7.29334 8.28876 7.30207 8.43016 7.19562C9.03403 6.65911 9.00872 6.09296 8.41462 5.57447C8.03266 5.24126 8.07157 5.14189 8.42626 4.8378C8.54946 4.73214 8.56438 4.54588 8.45954 4.42175C8.35473 4.29763 8.16981 4.2826 8.04657 4.38822C7.42552 4.9206 7.42321 5.49041 8.03098 6.02071Z" fill="#000"/>
<path d="M6.22933 6.02071C6.60574 6.34915 6.5832 6.4488 6.24094 6.75289C6.11961 6.86072 6.10797 7.04722 6.215 7.16949C6.34929 7.29334 6.48711 7.30207 6.62851 7.19562C7.2323 6.65911 7.20715 6.09296 6.61297 5.57451C6.23105 5.24122 6.26984 5.14193 6.62461 4.8378C6.74781 4.73214 6.76273 4.54588 6.65789 4.42175C6.55308 4.29763 6.36816 4.2826 6.24492 4.38822C5.62394 4.92056 5.62152 5.49045 6.22933 6.02071Z" fill="#000"/>
</svg>
