<svg width="38" height="38" viewBox="0 0 38 38" fill="none" xmlns="http://www.w3.org/2000/svg">
<path d="M28.1875 32.1135V3.90625C28.186 3.38457 27.9781 2.88469 27.6092 2.51581C27.2403 2.14692 26.7404 1.93901 26.2188 1.9375H3.90625C3.38457 1.93901 2.88469 2.14692 2.51581 2.51581C2.14692 2.88469 1.93901 3.38457 1.9375 3.90625V32.7812C1.9401 33.6507 2.28663 34.4838 2.90142 35.0986C3.51622 35.7134 4.34931 36.0599 5.21875 36.0625H32.125" stroke="#0E4E7F" stroke-width="2.25" stroke-linejoin="round"/>
<path d="M32.125 36.0625C31.0807 36.0625 30.0792 35.6477 29.3408 34.9092C28.6023 34.1708 28.1875 33.1693 28.1875 32.125V8.5H34.0938C34.6159 8.5 35.1167 8.70742 35.4859 9.07663C35.8551 9.44585 36.0625 9.94661 36.0625 10.4688V32.125C36.0625 33.1693 35.6477 34.1708 34.9092 34.9092C34.1708 35.6477 33.1693 36.0625 32.125 36.0625Z" stroke="#0E4E7F" stroke-width="2.25" stroke-linejoin="round"/>
<path d="M17.6875 8.5H22.9375" stroke="#0E4E7F" stroke-width="2.25" stroke-linecap="round" stroke-linejoin="round"/>
<path d="M17.6875 13.75H22.9375" stroke="#0E4E7F" stroke-width="2.25" stroke-linecap="round" stroke-linejoin="round"/>
<path d="M7.1875 19H22.9375" stroke="#0E4E7F" stroke-width="2.25" stroke-linecap="round" stroke-linejoin="round"/>
<path d="M7.1875 24.25H22.9375" stroke="#0E4E7F" stroke-width="2.25" stroke-linecap="round" stroke-linejoin="round"/>
<path d="M7.1875 29.5H22.9375" stroke="#0E4E7F" stroke-width="2.25" stroke-linecap="round" stroke-linejoin="round"/>
<path d="M12.4375 15.0625H7.1875C6.8394 15.0625 6.50556 14.9242 6.25942 14.6781C6.01328 14.4319 5.875 14.0981 5.875 13.75V8.5C5.875 8.1519 6.01328 7.81806 6.25942 7.57192C6.50556 7.32578 6.8394 7.1875 7.1875 7.1875H12.4375C12.7856 7.1875 13.1194 7.32578 13.3656 7.57192C13.6117 7.81806 13.75 8.1519 13.75 8.5V13.75C13.75 14.0981 13.6117 14.4319 13.3656 14.6781C13.1194 14.9242 12.7856 15.0625 12.4375 15.0625Z" fill="#0E4E7F"/>
</svg>
