<svg width="55" height="55" viewBox="0 0 55 55" fill="none" xmlns="http://www.w3.org/2000/svg">
<path d="M45.8333 9.16658V36.6666H18.3333V9.16658H45.8333ZM45.8333 4.58325H18.3333C15.8124 4.58325 13.7499 6.64575 13.7499 9.16658V36.6666C13.7499 39.1874 15.8124 41.2499 18.3333 41.2499H45.8333C48.3541 41.2499 50.4166 39.1874 50.4166 36.6666V9.16658C50.4166 6.64575 48.3541 4.58325 45.8333 4.58325ZM26.3541 26.7437L30.227 31.9228L35.9103 24.8187L43.5416 34.3749H20.6249L26.3541 26.7437ZM4.58325 13.7499V45.8332C4.58325 48.3541 6.64575 50.4166 9.16659 50.4166H41.2499V45.8332H9.16659V13.7499H4.58325Z" fill="#495057"/>
</svg>
