<svg width="20" height="17" viewBox="0 0 20 17" fill="none" xmlns="http://www.w3.org/2000/svg">
<g clip-path="url(#clip0)">
<path d="M14.0703 13.7041H13.4442C13.2821 13.7041 13.1506 13.8355 13.1506 13.9976C13.1506 14.1598 13.2821 14.2912 13.4442 14.2912H14.0703C14.2324 14.2912 14.3638 14.1598 14.3638 13.9976C14.3638 13.8355 14.2324 13.7041 14.0703 13.7041Z" fill="#000"/>
<path d="M19.0802 7.12869H17.4951V6.41503C17.8587 6.29221 18.1213 5.9481 18.1213 5.54356C18.1213 5.06642 17.7561 4.67307 17.2905 4.62818C16.0882 3.59562 13.6652 2.89569 10.9198 2.76673V2.07977H10.9393C11.4465 2.07977 11.8591 1.66716 11.8591 1.16C11.8591 0.652837 11.4465 0.240234 10.9393 0.240234H9.06067C8.5535 0.240234 8.1409 0.652837 8.1409 1.16C8.1409 1.66716 8.5535 2.07977 9.06067 2.07977H9.08023V2.76673C6.33476 2.89569 3.91182 3.59562 2.70947 4.62818C2.24391 4.67307 1.87867 5.06642 1.87867 5.54356C1.87867 5.9481 2.14129 6.29221 2.50489 6.41503V7.12869H0.919765C0.412603 7.12869 0 7.54129 0 8.04845C0 8.55562 0.412603 8.96822 0.919765 8.96822H1.54599C2.07472 8.96822 2.50489 9.3984 2.50489 9.92712V13.9976C2.50489 15.1953 3.47933 16.1698 4.6771 16.1698H15.3229C16.5207 16.1698 17.4951 15.1953 17.4951 13.9976V9.92712C17.4951 9.3984 17.9253 8.96822 18.454 8.96822H19.0802C19.5874 8.96822 20 8.55562 20 8.04845C20 7.54129 19.5874 7.12869 19.0802 7.12869ZM10 3.33221C12.5387 3.33221 14.8656 3.82474 16.2613 4.6238H3.73875C5.13444 3.82474 7.46133 3.33221 10 3.33221ZM8.72798 1.16C8.72798 0.976555 8.87722 0.827319 9.06067 0.827319H10.9393C11.1228 0.827319 11.272 0.976555 11.272 1.16C11.272 1.34344 11.1228 1.49268 10.9393 1.49268H9.06067C8.87722 1.49268 8.72798 1.34344 8.72798 1.16ZM9.66732 2.07977H10.3327V2.74802C10.2222 2.74614 10.1113 2.74513 10 2.74513C9.88873 2.74513 9.77785 2.74618 9.66732 2.74802V2.07977ZM2.79843 5.21088H17.2016C17.385 5.21088 17.5342 5.36012 17.5342 5.54356C17.5342 5.72701 17.385 5.87624 17.2016 5.87624H2.79843C2.61499 5.87624 2.46575 5.72701 2.46575 5.54356C2.46575 5.36012 2.61499 5.21088 2.79843 5.21088ZM1.54599 8.38114H0.919765C0.736321 8.38114 0.587084 8.2319 0.587084 8.04845C0.587084 7.86501 0.736321 7.71577 0.919765 7.71577H2.50489V8.71581C2.24114 8.50658 1.90802 8.38114 1.54599 8.38114ZM15.3229 15.5827H4.6771C3.90341 15.5827 3.25777 15.0253 3.11969 14.2911H12.1917C12.3538 14.2911 12.4852 14.1597 12.4852 13.9976C12.4852 13.8355 12.3538 13.704 12.1917 13.704H3.09198V6.46333H16.908V13.704H15.3228C15.1607 13.704 15.0292 13.8355 15.0292 13.9976C15.0292 14.1597 15.1607 14.2911 15.3228 14.2911H16.8804C16.7422 15.0253 16.0966 15.5827 15.3229 15.5827ZM19.0802 8.38114H18.454C18.092 8.38114 17.7589 8.50658 17.4951 8.71581V7.71577H19.0802C19.2637 7.71577 19.4129 7.86501 19.4129 8.04845C19.4129 8.2319 19.2637 8.38114 19.0802 8.38114Z" fill="#000"/>
<path d="M15.9491 8.34197C16.1112 8.34197 16.2426 8.21054 16.2426 8.04843V7.4222C16.2426 7.26009 16.1112 7.12866 15.9491 7.12866C15.7869 7.12866 15.6555 7.26009 15.6555 7.4222V8.04843C15.6555 8.21054 15.7869 8.34197 15.9491 8.34197Z" fill="#000"/>
<path d="M15.9491 11.7862C16.1112 11.7862 16.2426 11.6548 16.2426 11.4926V9.30087C16.2426 9.13875 16.1112 9.00732 15.9491 9.00732C15.7869 9.00732 15.6555 9.13875 15.6555 9.30087V11.4926C15.6555 11.6548 15.7869 11.7862 15.9491 11.7862Z" fill="#000"/>
</g>
<defs>
<clipPath id="clip0">
<rect width="20" height="16.4103" fill="#000"/>
</clipPath>
</defs>
</svg>
