<svg width="20" height="20" viewBox="0 0 20 20" fill="none" xmlns="http://www.w3.org/2000/svg">
<g clip-path="url(#clip0)">
<path d="M20 10.0011C20 4.47778 15.5228 0.000976562 10.0002 0.000976562C4.4772 0.000976562 0 4.47778 0 10.0011C0 15.5236 4.4772 20.0007 10.0002 20.0007C15.5228 20.0007 20 15.5236 20 10.0011Z" fill="#CED4DA"/>
<path d="M5.57153 6.99741C5.57153 6.4365 5.7516 5.86814 6.1118 5.29243C6.47189 4.71673 6.99753 4.23995 7.68836 3.862C8.37923 3.48418 9.18522 3.29517 10.1063 3.29517C10.9624 3.29517 11.7183 3.45322 12.3738 3.76901C13.0292 4.08495 13.5354 4.51454 13.8928 5.05771C14.2499 5.60104 14.4286 6.19142 14.4286 6.82912C14.4286 7.33106 14.3267 7.77104 14.123 8.14882C13.9193 8.52677 13.6771 8.85299 13.3967 9.1275C13.1162 9.40209 12.6128 9.86416 11.8866 10.5137C11.6858 10.6968 11.5248 10.8577 11.4039 10.9964C11.2828 11.1352 11.1927 11.2621 11.1337 11.3772C11.0746 11.4924 11.0288 11.6075 10.9964 11.7227C10.9639 11.8378 10.9152 12.0401 10.8503 12.3294C10.7381 12.9435 10.3867 13.2505 9.79632 13.2505C9.48924 13.2505 9.23085 13.1502 9.02132 12.9494C8.81167 12.7487 8.7069 12.4505 8.7069 12.0548C8.7069 11.5588 8.78357 11.1292 8.93719 10.7661C9.09069 10.4029 9.29438 10.0841 9.54833 9.80958C9.80212 9.53499 10.1447 9.20881 10.5757 8.83086C10.9536 8.50024 11.2267 8.25072 11.395 8.08243C11.5633 7.91414 11.705 7.72678 11.8202 7.51999C11.9353 7.31336 11.9929 7.08904 11.9929 6.84686C11.9929 6.37451 11.8172 5.97597 11.4659 5.65115C11.1145 5.32649 10.6613 5.16401 10.1063 5.16401C9.45671 5.16401 8.97843 5.32787 8.67147 5.65558C8.36439 5.9833 8.10464 6.46601 7.89204 7.10371C7.69126 7.77104 7.31037 8.10456 6.74946 8.10456C6.41868 8.10456 6.1397 7.98803 5.91247 7.75471C5.68517 7.52148 5.57153 7.26906 5.57153 6.99741ZM9.89378 16.7048C9.53354 16.7048 9.21912 16.5881 8.9505 16.3549C8.68175 16.1218 8.54748 15.7955 8.54748 15.3762C8.54748 15.0042 8.67728 14.6913 8.93719 14.4374C9.19695 14.1836 9.5158 14.0565 9.89374 14.0565C10.2658 14.0565 10.5786 14.1836 10.8326 14.4374C11.0864 14.6913 11.2134 15.0042 11.2134 15.3762C11.2134 15.7896 11.0806 16.1144 10.8149 16.3505C10.5491 16.5867 10.2421 16.7048 9.89378 16.7048Z" fill="white"/>
</g>
<defs>
<clipPath id="clip0">
<rect width="20" height="20" fill="white"/>
</clipPath>
</defs>
</svg>
