<?xml version="1.0"?>
<svg xmlns="http://www.w3.org/2000/svg" xmlns:xlink="http://www.w3.org/1999/xlink" xmlns:svgjs="http://svgjs.com/svgjs" version="1.1" width="512" height="512" x="0" y="0" viewBox="0 0 420 420.96068" style="enable-background:new 0 0 512 512" xml:space="preserve" class=""><g><path xmlns="http://www.w3.org/2000/svg" d="m313.460938 262.605469c34.878906 2.765625 63.332031 29.050781 68.847656 63.605469 5.511718 34.550781-13.339844 68.386718-45.625 81.875-32.285156 13.488281-69.609375 3.125-90.3125-25.082032-.140625-.1875-.28125-.378906-.421875-.578125-16.605469-23.085937-18.890625-53.523437-5.917969-78.832031 12.96875-25.308594 39.011719-41.226562 67.449219-41.230469 2.011719 0 4.011719.082031 5.980469.242188zm0 0" fill="#c8e6c9" data-original="#6fe3ff" style="" class=""/><path xmlns="http://www.w3.org/2000/svg" d="m235.710938 106.625h32.820312c10.164062 0 18.8125 7.398438 20.390625 17.441406l24.539063 138.539063c-1.96875-.160157-3.96875-.242188-5.980469-.242188-28.4375.003907-54.480469 15.921875-67.449219 41.230469-12.972656 25.308594-10.6875 55.746094 5.917969 78.832031l-.808594.578125h-196.371094c-22.804687 0-41.289062-18.484375-41.289062-41.289062l38.550781-217.648438c1.574219-10.042968 10.226562-17.441406 20.390625-17.441406zm0 0" fill="#ffffff" data-original="#e48e66" style="" class=""/><g xmlns="http://www.w3.org/2000/svg" fill="#63316d"><path d="m319.445312 256.253906-23.621093-133.34375c-2.085938-13.445312-13.6875-23.34375-27.292969-23.285156h-25.820312v-24.390625c0-41.550781-33.683594-75.234375-75.234376-75.234375-41.550781 0-75.234374 33.683594-75.234374 75.234375v24.390625h-25.820313c-13.605469-.058594-25.210937 9.839844-27.296875 23.285156l-38.539062 217.585938c-.070313.402344-.105469.808594-.105469 1.21875.03125 26.65625 21.632812 48.261718 48.289062 48.289062h194.167969c23.230469 28.929688 62.867188 38.875 97 24.332032 34.132812-14.539063 54.425781-50.011719 49.65625-86.804688s-33.4375-65.921875-70.148438-71.277344zm-213.203124-181.019531c0-33.820313 27.414062-61.234375 61.234374-61.234375 33.816407 0 61.234376 27.414062 61.234376 61.234375v24.390625h-122.46875zm-91.757813 267.066406 38.4375-217.015625c.007813-.046875.015625-.09375.023437-.140625 1.015626-6.648437 6.75-11.550781 13.476563-11.519531h25.820313v38.03125c0 3.863281 3.132812 7 7 7 3.863281 0 7-3.136719 7-7v-38.03125h122.46875v38.03125c0 3.863281 3.132812 7 7 7 3.867187 0 7-3.136719 7-7v-38.03125h25.820312c6.726562-.03125 12.460938 4.871094 13.472656 11.519531.007813.046875.015625.09375.023438.140625l23.050781 130.140625c-28.410156.832031-54.410156 16.175781-68.871094 40.644531-14.460937 24.46875-15.359375 54.644532-2.382812 79.933594h-185.054688c-18.699219-.019531-33.941406-15.003906-34.285156-33.703125zm293 64.644531c-21.902344-.046874-42.488281-10.476562-55.484375-28.105468-.101562-.140625-.207031-.28125-.367188-.507813-15.066406-20.953125-17.140624-48.578125-5.371093-71.546875 11.773437-22.96875 35.410156-37.417968 61.21875-37.421875 1.820312 0 3.640625.074219 5.410156.21875h.023437c36.824219 2.910157 64.773438 34.382813 63.316407 71.292969-1.460938 36.910156-31.8125 66.078125-68.75 66.070312zm0 0" fill="#cccbcd" data-original="#63316d" style="" class=""/><path d="m342.996094 311.351562-45.425782 43.375-23.71875-23.730468c-2.734374-2.734375-7.167968-2.734375-9.902343 0s-2.734375 7.167968 0 9.898437l28.5625 28.570313c2.6875 2.691406 7.03125 2.742187 9.785156.113281l50.367187-48.097656c2.796876-2.671875 2.898438-7.101563.230469-9.898438-2.671875-2.796875-7.101562-2.898437-9.898437-.226562zm0 0" fill="#cccbcd" data-original="#63316d" style="" class=""/></g></g></svg>
