<svg width="20" height="17" viewBox="0 0 20 17" fill="none" xmlns="http://www.w3.org/2000/svg">
<g clip-path="url(#clip0)">
<path d="M1.66672 16.2219H18.3333C19.2534 16.2207 19.9989 15.4395 20 14.4756V1.90213C19.9989 0.938055 19.2534 0.156881 18.3333 0.155762H1.66672C0.746613 0.156881 0.00106812 0.938055 0 1.90213V14.4756C0.00106812 15.4395 0.746613 16.2207 1.66672 16.2219ZM0.666656 1.90213C0.667267 1.32369 1.11465 0.854917 1.66672 0.854277H18.3333C18.8853 0.854917 19.3327 1.32369 19.3333 1.90213V14.4756C19.3327 15.054 18.8853 15.5226 18.3333 15.5233H1.66672C1.11465 15.5226 0.667267 15.054 0.666656 14.4756V1.90213Z" fill="white"/>
<path d="M2.33344 14.4754H9C9.55206 14.4748 9.99945 14.006 10.0001 13.4276V5.04523C10.0001 5.02476 9.99396 5.0059 9.99274 4.98543L10.2328 4.67127C10.927 4.54112 11.404 3.86643 11.3207 3.13258C11.2372 2.39873 10.6225 1.86026 9.91843 1.90438C9.21454 1.94851 8.66538 2.56005 8.66599 3.29902C8.66599 3.31916 8.67102 3.33803 8.67178 3.35801L8.18411 3.99753H2.33344C1.78137 3.99817 1.33398 4.46694 1.33337 5.04523V13.4276C1.33398 14.006 1.78137 14.4748 2.33344 14.4754ZM9.99945 2.6005C10.3676 2.6005 10.6661 2.91323 10.6661 3.29902C10.6661 3.68481 10.3676 3.99753 9.99945 3.99753C9.63126 3.99753 9.3328 3.68481 9.3328 3.29902C9.3331 2.91339 9.63141 2.60098 9.99945 2.6005ZM9.45487 4.57134L7.59223 7.01063C7.5289 7.09281 7.43353 7.14061 7.33267 7.14093C7.25699 7.14125 7.18344 7.11423 7.1247 7.06403C6.98126 6.94316 6.95837 6.72349 7.07343 6.57304L8.93515 4.13167C9.07004 4.32193 9.24887 4.47318 9.45487 4.57134ZM2.00003 5.04523C2.00018 4.85241 2.14941 4.69621 2.33344 4.69605H7.65143L6.5531 6.13641C6.31262 6.45073 6.26532 6.88161 6.43164 7.24486C6.59796 7.6081 6.9483 7.83929 7.33267 7.83945C7.63617 7.83833 7.92288 7.69396 8.11347 7.44646L9.33341 5.84894V13.4276C9.33325 13.6204 9.18402 13.7768 9 13.7769H2.33344C2.14941 13.7768 2.00018 13.6204 2.00003 13.4276V5.04523Z" fill="white"/>
<path d="M12.3333 14.4755H17.6666C18.2186 14.4748 18.666 14.006 18.6666 13.4276V5.04525C18.666 4.46697 18.2186 3.9982 17.6666 3.99756H12.3333C11.7812 3.9982 11.3339 4.46697 11.3333 5.04525V13.4276C11.3339 14.006 11.7812 14.4748 12.3333 14.4755ZM11.9999 5.04525C12.0001 4.85244 12.1493 4.69623 12.3333 4.69607H17.6666C17.8506 4.69623 17.9998 4.85244 18 5.04525V13.4276C17.9998 13.6204 17.8506 13.7768 17.6666 13.7769H12.3333C12.1493 13.7768 12.0001 13.6204 11.9999 13.4276V5.04525Z" fill="white"/>
<path d="M13.0003 6.44241H17.0002C17.1844 6.44241 17.3336 6.28605 17.3336 6.09307C17.3336 5.90026 17.1844 5.7439 17.0002 5.7439H13.0003C12.8161 5.7439 12.6669 5.90026 12.6669 6.09307C12.6669 6.28605 12.8161 6.44241 13.0003 6.44241Z" fill="white"/>
<path d="M13.0003 8.53811H17.0002C17.1844 8.53811 17.3336 8.38175 17.3336 8.18878C17.3336 7.99596 17.1844 7.8396 17.0002 7.8396H13.0003C12.8161 7.8396 12.6669 7.99596 12.6669 8.18878C12.6669 8.38175 12.8161 8.53811 13.0003 8.53811Z" fill="white"/>
<path d="M13.0003 10.6336H17.0002C17.1844 10.6336 17.3336 10.4772 17.3336 10.2842C17.3336 10.0914 17.1844 9.93506 17.0002 9.93506H13.0003C12.8161 9.93506 12.6669 10.0914 12.6669 10.2842C12.6669 10.4772 12.8161 10.6336 13.0003 10.6336Z" fill="white"/>
<path d="M13.0003 12.7293H17.0002C17.1844 12.7293 17.3336 12.5729 17.3336 12.3801C17.3336 12.1871 17.1844 12.0308 17.0002 12.0308H13.0003C12.8161 12.0308 12.6669 12.1871 12.6669 12.3801C12.6669 12.5729 12.8161 12.7293 13.0003 12.7293Z" fill="white"/>
<path d="M1.99976 2.25125H2.33316C2.51718 2.25125 2.66641 2.09489 2.66641 1.90207C2.66641 1.7091 2.51718 1.55273 2.33316 1.55273H1.99976C1.81573 1.55273 1.6665 1.7091 1.6665 1.90207C1.6665 2.09489 1.81573 2.25125 1.99976 2.25125Z" fill="white"/>
<path d="M3.6669 2.25125H7.00018C7.18435 2.25125 7.33359 2.09489 7.33359 1.90207C7.33359 1.7091 7.18435 1.55273 7.00018 1.55273H3.6669C3.48273 1.55273 3.3335 1.7091 3.3335 1.90207C3.3335 2.09489 3.48273 2.25125 3.6669 2.25125Z" fill="white"/>
<path d="M5.66669 10.2843C6.21906 10.2843 6.66675 9.81518 6.66675 9.23657C6.66675 8.65781 6.21906 8.18872 5.66669 8.18872C5.11447 8.18872 4.66663 8.65781 4.66663 9.23657C4.66724 9.81502 5.11462 10.2836 5.66669 10.2843ZM5.66669 8.88724C5.85086 8.88724 6.00009 9.0436 6.00009 9.23657C6.00009 9.42939 5.85086 9.58575 5.66669 9.58575C5.48267 9.58575 5.33344 9.42939 5.33344 9.23657C5.33359 9.04376 5.48267 8.8874 5.66669 8.88724Z" fill="white"/>
</g>
<defs>
<clipPath id="clip0">
<rect width="20" height="16.3557" fill="white"/>
</clipPath>
</defs>
</svg>
