<svg width="20" height="20" viewBox="0 0 20 20" fill="none" xmlns="http://www.w3.org/2000/svg">
<path d="M19.0625 0.3125H0.9375C0.85462 0.3125 0.775134 0.345424 0.716529 0.404029C0.657924 0.462634 0.625 0.54212 0.625 0.625V18.4375C0.625 18.5204 0.657924 18.5999 0.716529 18.6585C0.775134 18.7171 0.85462 18.75 0.9375 18.75H4.0625V19.375C4.0625 19.4579 4.09542 19.5374 4.15403 19.596C4.21263 19.6546 4.29212 19.6875 4.375 19.6875H6.875C6.95788 19.6875 7.03737 19.6546 7.09597 19.596C7.15458 19.5374 7.1875 19.4579 7.1875 19.375V18.75H8.4375V19.375C8.4375 19.4579 8.47042 19.5374 8.52903 19.596C8.58763 19.6546 8.66712 19.6875 8.75 19.6875H11.25C11.3329 19.6875 11.4124 19.6546 11.471 19.596C11.5296 19.5374 11.5625 19.4579 11.5625 19.375V18.75H12.8125V19.375C12.8125 19.4579 12.8454 19.5374 12.904 19.596C12.9626 19.6546 13.0421 19.6875 13.125 19.6875H15.625C15.7079 19.6875 15.7874 19.6546 15.846 19.596C15.9046 19.5374 15.9375 19.4579 15.9375 19.375V18.75H19.0625C19.1454 18.75 19.2249 18.7171 19.2835 18.6585C19.3421 18.5999 19.375 18.5204 19.375 18.4375V0.625C19.375 0.54212 19.3421 0.462634 19.2835 0.404029C19.2249 0.345424 19.1454 0.3125 19.0625 0.3125ZM6.5625 19.0625H4.6875V18.75H6.5625V19.0625ZM10.9375 19.0625H9.0625V18.75H10.9375V19.0625ZM15.3125 19.0625H13.4375V18.75H15.3125V19.0625ZM18.75 18.125H1.25V0.9375H18.75V18.125Z" fill="#000"/>
<path d="M1.875 5.625H2.20344C2.27741 6.4246 2.62873 7.17314 3.19654 7.74096C3.76436 8.30877 4.5129 8.66009 5.3125 8.73406V9.0625C5.3125 9.14538 5.34542 9.22487 5.40403 9.28347C5.46263 9.34208 5.54212 9.375 5.625 9.375C5.70788 9.375 5.78737 9.34208 5.84597 9.28347C5.90458 9.22487 5.9375 9.14538 5.9375 9.0625V8.73406C6.7371 8.66009 7.48564 8.30877 8.05346 7.74096C8.62127 7.17314 8.97259 6.4246 9.04656 5.625H9.375C9.45788 5.625 9.53737 5.59208 9.59597 5.53347C9.65458 5.47487 9.6875 5.39538 9.6875 5.3125C9.6875 5.22962 9.65458 5.15013 9.59597 5.09153C9.53737 5.03292 9.45788 5 9.375 5H9.04656C8.97259 4.2004 8.62127 3.45186 8.05346 2.88404C7.48564 2.31623 6.7371 1.96491 5.9375 1.89094V1.5625C5.9375 1.47962 5.90458 1.40013 5.84597 1.34153C5.78737 1.28292 5.70788 1.25 5.625 1.25C5.54212 1.25 5.46263 1.28292 5.40403 1.34153C5.34542 1.40013 5.3125 1.47962 5.3125 1.5625V1.89094C4.5129 1.96491 3.76436 2.31623 3.19654 2.88404C2.62873 3.45186 2.27741 4.2004 2.20344 5H1.875C1.79212 5 1.71263 5.03292 1.65403 5.09153C1.59542 5.15013 1.5625 5.22962 1.5625 5.3125C1.5625 5.39538 1.59542 5.47487 1.65403 5.53347C1.71263 5.59208 1.79212 5.625 1.875 5.625ZM5.3125 2.51844V2.8125C5.3125 2.89538 5.34542 2.97487 5.40403 3.03347C5.46263 3.09208 5.54212 3.125 5.625 3.125C5.70788 3.125 5.78737 3.09208 5.84597 3.03347C5.90458 2.97487 5.9375 2.89538 5.9375 2.8125V2.51844C6.57096 2.5901 7.16136 2.87458 7.61214 3.32536C8.06292 3.77614 8.3474 4.36654 8.41906 5H8.125C8.04212 5 7.96263 5.03292 7.90403 5.09153C7.84542 5.15013 7.8125 5.22962 7.8125 5.3125C7.8125 5.39538 7.84542 5.47487 7.90403 5.53347C7.96263 5.59208 8.04212 5.625 8.125 5.625H8.41906C8.3474 6.25846 8.06292 6.84886 7.61214 7.29964C7.16136 7.75042 6.57096 8.0349 5.9375 8.10656V7.8125C5.9375 7.72962 5.90458 7.65013 5.84597 7.59153C5.78737 7.53292 5.70788 7.5 5.625 7.5C5.54212 7.5 5.46263 7.53292 5.40403 7.59153C5.34542 7.65013 5.3125 7.72962 5.3125 7.8125V8.10656C4.67904 8.0349 4.08864 7.75042 3.63786 7.29964C3.18708 6.84886 2.9026 6.25846 2.83094 5.625H3.125C3.20788 5.625 3.28737 5.59208 3.34597 5.53347C3.40458 5.47487 3.4375 5.39538 3.4375 5.3125C3.4375 5.22962 3.40458 5.15013 3.34597 5.09153C3.28737 5.03292 3.20788 5 3.125 5H2.83094C2.9026 4.36654 3.18708 3.77614 3.63786 3.32536C4.08864 2.87458 4.67904 2.5901 5.3125 2.51844Z" fill="#000"/>
<path d="M5.625 7.1875C5.99584 7.1875 6.35835 7.07753 6.66669 6.87151C6.97504 6.66548 7.21536 6.37264 7.35727 6.03003C7.49919 5.68742 7.53632 5.31042 7.46397 4.94671C7.39162 4.58299 7.21305 4.2489 6.95083 3.98668C6.6886 3.72445 6.35451 3.54588 5.99079 3.47353C5.62708 3.40118 5.25008 3.43831 4.90747 3.58023C4.56486 3.72214 4.27202 3.96246 4.06599 4.27081C3.85997 4.57915 3.75 4.94166 3.75 5.3125C3.7505 5.80963 3.9482 6.28625 4.29972 6.63778C4.65125 6.9893 5.12787 7.187 5.625 7.1875ZM5.625 4.0625C5.87223 4.0625 6.1139 4.13581 6.31946 4.27316C6.52502 4.41052 6.68524 4.60574 6.77985 4.83415C6.87446 5.06255 6.89921 5.31389 6.85098 5.55636C6.80275 5.79884 6.6837 6.02157 6.50888 6.19638C6.33407 6.3712 6.11134 6.49025 5.86886 6.53848C5.62639 6.58671 5.37505 6.56196 5.14665 6.46735C4.91824 6.37274 4.72301 6.21252 4.58566 6.00696C4.44831 5.8014 4.375 5.55973 4.375 5.3125C4.375 4.98098 4.5067 4.66304 4.74112 4.42862C4.97554 4.1942 5.29348 4.0625 5.625 4.0625Z" fill="#000"/>
<path d="M1.875 14.0625H2.20344C2.27741 14.8621 2.62873 15.6106 3.19654 16.1785C3.76436 16.7463 4.5129 17.0976 5.3125 17.1716V17.5C5.3125 17.5829 5.34542 17.6624 5.40403 17.721C5.46263 17.7796 5.54212 17.8125 5.625 17.8125C5.70788 17.8125 5.78737 17.7796 5.84597 17.721C5.90458 17.6624 5.9375 17.5829 5.9375 17.5V17.1716C6.7371 17.0976 7.48564 16.7463 8.05346 16.1785C8.62127 15.6106 8.97259 14.8621 9.04656 14.0625H9.375C9.45788 14.0625 9.53737 14.0296 9.59597 13.971C9.65458 13.9124 9.6875 13.8329 9.6875 13.75C9.6875 13.6671 9.65458 13.5876 9.59597 13.529C9.53737 13.4704 9.45788 13.4375 9.375 13.4375H9.04656C8.97259 12.6379 8.62127 11.8894 8.05346 11.3215C7.48564 10.7537 6.7371 10.4024 5.9375 10.3284V10C5.9375 9.91712 5.90458 9.83763 5.84597 9.77903C5.78737 9.72042 5.70788 9.6875 5.625 9.6875C5.54212 9.6875 5.46263 9.72042 5.40403 9.77903C5.34542 9.83763 5.3125 9.91712 5.3125 10V10.3284C4.5129 10.4024 3.76436 10.7537 3.19654 11.3215C2.62873 11.8894 2.27741 12.6379 2.20344 13.4375H1.875C1.79212 13.4375 1.71263 13.4704 1.65403 13.529C1.59542 13.5876 1.5625 13.6671 1.5625 13.75C1.5625 13.8329 1.59542 13.9124 1.65403 13.971C1.71263 14.0296 1.79212 14.0625 1.875 14.0625ZM5.3125 10.9559V11.25C5.3125 11.3329 5.34542 11.4124 5.40403 11.471C5.46263 11.5296 5.54212 11.5625 5.625 11.5625C5.70788 11.5625 5.78737 11.5296 5.84597 11.471C5.90458 11.4124 5.9375 11.3329 5.9375 11.25V10.9559C6.57096 11.0276 7.16136 11.3121 7.61214 11.7629C8.06292 12.2136 8.3474 12.804 8.41906 13.4375H8.125C8.04212 13.4375 7.96263 13.4704 7.90403 13.529C7.84542 13.5876 7.8125 13.6671 7.8125 13.75C7.8125 13.8329 7.84542 13.9124 7.90403 13.971C7.96263 14.0296 8.04212 14.0625 8.125 14.0625H8.41906C8.3474 14.696 8.06292 15.2864 7.61214 15.7371C7.16136 16.1879 6.57096 16.4724 5.9375 16.5441V16.25C5.9375 16.1671 5.90458 16.0876 5.84597 16.029C5.78737 15.9704 5.70788 15.9375 5.625 15.9375C5.54212 15.9375 5.46263 15.9704 5.40403 16.029C5.34542 16.0876 5.3125 16.1671 5.3125 16.25V16.5441C4.67904 16.4724 4.08864 16.1879 3.63786 15.7371C3.18708 15.2864 2.9026 14.696 2.83094 14.0625H3.125C3.20788 14.0625 3.28737 14.0296 3.34597 13.971C3.40458 13.9124 3.4375 13.8329 3.4375 13.75C3.4375 13.6671 3.40458 13.5876 3.34597 13.529C3.28737 13.4704 3.20788 13.4375 3.125 13.4375H2.83094C2.9026 12.804 3.18708 12.2136 3.63786 11.7629C4.08864 11.3121 4.67904 11.0276 5.3125 10.9559Z" fill="#000"/>
<path d="M5.625 15.625C5.99584 15.625 6.35835 15.515 6.66669 15.309C6.97504 15.103 7.21536 14.8101 7.35727 14.4675C7.49919 14.1249 7.53632 13.7479 7.46397 13.3842C7.39162 13.0205 7.21305 12.6864 6.95083 12.4242C6.6886 12.162 6.35451 11.9834 5.99079 11.911C5.62708 11.8387 5.25008 11.8758 4.90747 12.0177C4.56486 12.1596 4.27202 12.4 4.06599 12.7083C3.85997 13.0166 3.75 13.3792 3.75 13.75C3.7505 14.2471 3.9482 14.7238 4.29972 15.0753C4.65125 15.4268 5.12787 15.6245 5.625 15.625ZM5.625 12.5C5.87223 12.5 6.1139 12.5733 6.31946 12.7107C6.52502 12.848 6.68524 13.0432 6.77985 13.2716C6.87446 13.5001 6.89921 13.7514 6.85098 13.9939C6.80275 14.2363 6.6837 14.4591 6.50888 14.6339C6.33407 14.8087 6.11134 14.9278 5.86886 14.976C5.62639 15.0242 5.37505 14.9995 5.14665 14.9048C4.91824 14.8102 4.72301 14.65 4.58566 14.4445C4.44831 14.2389 4.375 13.9972 4.375 13.75C4.375 13.4185 4.5067 13.1005 4.74112 12.8661C4.97554 12.6317 5.29348 12.5 5.625 12.5Z" fill="#000"/>
<path d="M10.625 5.625H10.9534C11.0274 6.4246 11.3787 7.17314 11.9465 7.74096C12.5144 8.30877 13.2629 8.66009 14.0625 8.73406V9.0625C14.0625 9.14538 14.0954 9.22487 14.154 9.28347C14.2126 9.34208 14.2921 9.375 14.375 9.375C14.4579 9.375 14.5374 9.34208 14.596 9.28347C14.6546 9.22487 14.6875 9.14538 14.6875 9.0625V8.73406C15.4871 8.66009 16.2356 8.30877 16.8035 7.74096C17.3713 7.17314 17.7226 6.4246 17.7966 5.625H18.125C18.2079 5.625 18.2874 5.59208 18.346 5.53347C18.4046 5.47487 18.4375 5.39538 18.4375 5.3125C18.4375 5.22962 18.4046 5.15013 18.346 5.09153C18.2874 5.03292 18.2079 5 18.125 5H17.7966C17.7226 4.2004 17.3713 3.45186 16.8035 2.88404C16.2356 2.31623 15.4871 1.96491 14.6875 1.89094V1.5625C14.6875 1.47962 14.6546 1.40013 14.596 1.34153C14.5374 1.28292 14.4579 1.25 14.375 1.25C14.2921 1.25 14.2126 1.28292 14.154 1.34153C14.0954 1.40013 14.0625 1.47962 14.0625 1.5625V1.89094C13.2629 1.96491 12.5144 2.31623 11.9465 2.88404C11.3787 3.45186 11.0274 4.2004 10.9534 5H10.625C10.5421 5 10.4626 5.03292 10.404 5.09153C10.3454 5.15013 10.3125 5.22962 10.3125 5.3125C10.3125 5.39538 10.3454 5.47487 10.404 5.53347C10.4626 5.59208 10.5421 5.625 10.625 5.625ZM14.0625 2.51844V2.8125C14.0625 2.89538 14.0954 2.97487 14.154 3.03347C14.2126 3.09208 14.2921 3.125 14.375 3.125C14.4579 3.125 14.5374 3.09208 14.596 3.03347C14.6546 2.97487 14.6875 2.89538 14.6875 2.8125V2.51844C15.321 2.5901 15.9114 2.87458 16.3621 3.32536C16.8129 3.77614 17.0974 4.36654 17.1691 5H16.875C16.7921 5 16.7126 5.03292 16.654 5.09153C16.5954 5.15013 16.5625 5.22962 16.5625 5.3125C16.5625 5.39538 16.5954 5.47487 16.654 5.53347C16.7126 5.59208 16.7921 5.625 16.875 5.625H17.1691C17.0974 6.25846 16.8129 6.84886 16.3621 7.29964C15.9114 7.75042 15.321 8.0349 14.6875 8.10656V7.8125C14.6875 7.72962 14.6546 7.65013 14.596 7.59153C14.5374 7.53292 14.4579 7.5 14.375 7.5C14.2921 7.5 14.2126 7.53292 14.154 7.59153C14.0954 7.65013 14.0625 7.72962 14.0625 7.8125V8.10656C13.429 8.0349 12.8386 7.75042 12.3879 7.29964C11.9371 6.84886 11.6526 6.25846 11.5809 5.625H11.875C11.9579 5.625 12.0374 5.59208 12.096 5.53347C12.1546 5.47487 12.1875 5.39538 12.1875 5.3125C12.1875 5.22962 12.1546 5.15013 12.096 5.09153C12.0374 5.03292 11.9579 5 11.875 5H11.5809C11.6526 4.36654 11.9371 3.77614 12.3879 3.32536C12.8386 2.87458 13.429 2.5901 14.0625 2.51844Z" fill="#000"/>
<path d="M14.375 7.1875C14.7458 7.1875 15.1084 7.07753 15.4167 6.87151C15.725 6.66548 15.9654 6.37264 16.1073 6.03003C16.2492 5.68742 16.2863 5.31042 16.214 4.94671C16.1416 4.58299 15.963 4.2489 15.7008 3.98668C15.4386 3.72445 15.1045 3.54588 14.7408 3.47353C14.3771 3.40118 14.0001 3.43831 13.6575 3.58023C13.3149 3.72214 13.022 3.96246 12.816 4.27081C12.61 4.57915 12.5 4.94166 12.5 5.3125C12.5005 5.80963 12.6982 6.28625 13.0497 6.63778C13.4012 6.9893 13.8779 7.187 14.375 7.1875ZM14.375 4.0625C14.6222 4.0625 14.8639 4.13581 15.0695 4.27316C15.275 4.41052 15.4352 4.60574 15.5298 4.83415C15.6245 5.06255 15.6492 5.31389 15.601 5.55636C15.5527 5.79884 15.4337 6.02157 15.2589 6.19638C15.0841 6.3712 14.8613 6.49025 14.6189 6.53848C14.3764 6.58671 14.1251 6.56196 13.8966 6.46735C13.6682 6.37274 13.473 6.21252 13.3357 6.00696C13.1983 5.8014 13.125 5.55973 13.125 5.3125C13.125 4.98098 13.2567 4.66304 13.4911 4.42862C13.7255 4.1942 14.0435 4.0625 14.375 4.0625Z" fill="#000"/>
<path d="M10.625 14.0625H10.9534C11.0274 14.8621 11.3787 15.6106 11.9465 16.1785C12.5144 16.7463 13.2629 17.0976 14.0625 17.1716V17.5C14.0625 17.5829 14.0954 17.6624 14.154 17.721C14.2126 17.7796 14.2921 17.8125 14.375 17.8125C14.4579 17.8125 14.5374 17.7796 14.596 17.721C14.6546 17.6624 14.6875 17.5829 14.6875 17.5V17.1716C15.4871 17.0976 16.2356 16.7463 16.8035 16.1785C17.3713 15.6106 17.7226 14.8621 17.7966 14.0625H18.125C18.2079 14.0625 18.2874 14.0296 18.346 13.971C18.4046 13.9124 18.4375 13.8329 18.4375 13.75C18.4375 13.6671 18.4046 13.5876 18.346 13.529C18.2874 13.4704 18.2079 13.4375 18.125 13.4375H17.7966C17.7226 12.6379 17.3713 11.8894 16.8035 11.3215C16.2356 10.7537 15.4871 10.4024 14.6875 10.3284V10C14.6875 9.91712 14.6546 9.83763 14.596 9.77903C14.5374 9.72042 14.4579 9.6875 14.375 9.6875C14.2921 9.6875 14.2126 9.72042 14.154 9.77903C14.0954 9.83763 14.0625 9.91712 14.0625 10V10.3284C13.2629 10.4024 12.5144 10.7537 11.9465 11.3215C11.3787 11.8894 11.0274 12.6379 10.9534 13.4375H10.625C10.5421 13.4375 10.4626 13.4704 10.404 13.529C10.3454 13.5876 10.3125 13.6671 10.3125 13.75C10.3125 13.8329 10.3454 13.9124 10.404 13.971C10.4626 14.0296 10.5421 14.0625 10.625 14.0625ZM14.0625 10.9559V11.25C14.0625 11.3329 14.0954 11.4124 14.154 11.471C14.2126 11.5296 14.2921 11.5625 14.375 11.5625C14.4579 11.5625 14.5374 11.5296 14.596 11.471C14.6546 11.4124 14.6875 11.3329 14.6875 11.25V10.9559C15.321 11.0276 15.9114 11.3121 16.3621 11.7629C16.8129 12.2136 17.0974 12.804 17.1691 13.4375H16.875C16.7921 13.4375 16.7126 13.4704 16.654 13.529C16.5954 13.5876 16.5625 13.6671 16.5625 13.75C16.5625 13.8329 16.5954 13.9124 16.654 13.971C16.7126 14.0296 16.7921 14.0625 16.875 14.0625H17.1691C17.0974 14.696 16.8129 15.2864 16.3621 15.7371C15.9114 16.1879 15.321 16.4724 14.6875 16.5441V16.25C14.6875 16.1671 14.6546 16.0876 14.596 16.029C14.5374 15.9704 14.4579 15.9375 14.375 15.9375C14.2921 15.9375 14.2126 15.9704 14.154 16.029C14.0954 16.0876 14.0625 16.1671 14.0625 16.25V16.5441C13.429 16.4724 12.8386 16.1879 12.3879 15.7371C11.9371 15.2864 11.6526 14.696 11.5809 14.0625H11.875C11.9579 14.0625 12.0374 14.0296 12.096 13.971C12.1546 13.9124 12.1875 13.8329 12.1875 13.75C12.1875 13.6671 12.1546 13.5876 12.096 13.529C12.0374 13.4704 11.9579 13.4375 11.875 13.4375H11.5809C11.6526 12.804 11.9371 12.2136 12.3879 11.7629C12.8386 11.3121 13.429 11.0276 14.0625 10.9559Z" fill="#000"/>
<path d="M14.375 15.625C14.7458 15.625 15.1084 15.515 15.4167 15.309C15.725 15.103 15.9654 14.8101 16.1073 14.4675C16.2492 14.1249 16.2863 13.7479 16.214 13.3842C16.1416 13.0205 15.963 12.6864 15.7008 12.4242C15.4386 12.162 15.1045 11.9834 14.7408 11.911C14.3771 11.8387 14.0001 11.8758 13.6575 12.0177C13.3149 12.1596 13.022 12.4 12.816 12.7083C12.61 13.0166 12.5 13.3792 12.5 13.75C12.5005 14.2471 12.6982 14.7238 13.0497 15.0753C13.4012 15.4268 13.8779 15.6245 14.375 15.625ZM14.375 12.5C14.6222 12.5 14.8639 12.5733 15.0695 12.7107C15.275 12.848 15.4352 13.0432 15.5298 13.2716C15.6245 13.5001 15.6492 13.7514 15.601 13.9939C15.5527 14.2363 15.4337 14.4591 15.2589 14.6339C15.0841 14.8087 14.8613 14.9278 14.6189 14.976C14.3764 15.0242 14.1251 14.9995 13.8966 14.9048C13.6682 14.8102 13.473 14.65 13.3357 14.4445C13.1983 14.2389 13.125 13.9972 13.125 13.75C13.125 13.4185 13.2567 13.1005 13.4911 12.8661C13.7255 12.6317 14.0435 12.5 14.375 12.5Z" fill="#000"/>
<path d="M16.875 17.1875H15.625C15.5421 17.1875 15.4626 17.2204 15.404 17.279C15.3454 17.3376 15.3125 17.4171 15.3125 17.5C15.3125 17.5829 15.3454 17.6624 15.404 17.721C15.4626 17.7796 15.5421 17.8125 15.625 17.8125H16.875C16.9579 17.8125 17.0374 17.7796 17.096 17.721C17.1546 17.6624 17.1875 17.5829 17.1875 17.5C17.1875 17.4171 17.1546 17.3376 17.096 17.279C17.0374 17.2204 16.9579 17.1875 16.875 17.1875Z" fill="#000"/>
<path d="M18.125 17.1875H17.8125C17.7296 17.1875 17.6501 17.2204 17.5915 17.279C17.5329 17.3376 17.5 17.4171 17.5 17.5C17.5 17.5829 17.5329 17.6624 17.5915 17.721C17.6501 17.7796 17.7296 17.8125 17.8125 17.8125H18.125C18.2079 17.8125 18.2874 17.7796 18.346 17.721C18.4046 17.6624 18.4375 17.5829 18.4375 17.5C18.4375 17.4171 18.4046 17.3376 18.346 17.279C18.2874 17.2204 18.2079 17.1875 18.125 17.1875Z" fill="#000"/>
</svg>
