<svg width="36" height="37" viewBox="0 0 36 37" fill="none" xmlns="http://www.w3.org/2000/svg">
<path d="M12.4316 20.7477C12.1205 21.0589 11.7069 21.2302 11.267 21.2302C10.8271 21.2302 10.4134 21.0588 10.1024 20.7477C9.82791 20.4732 9.38269 20.4731 9.10805 20.7477C8.83348 21.0223 8.83341 21.4675 9.10805 21.7421C9.68476 22.3188 10.4514 22.6364 11.2671 22.6364C12.0826 22.6364 12.8494 22.3188 13.4261 21.7421C13.7007 21.4675 13.7007 21.0223 13.4261 20.7477C13.1515 20.473 12.7062 20.4732 12.4316 20.7477Z" fill="#0E4E7F"/>
<path d="M28.2652 0.122803C24.4391 0.122803 21.2534 2.92039 20.6386 6.5805C20.4486 6.34647 20.2455 6.12096 20.0285 5.90552C18.4858 4.37478 16.4541 3.52367 14.2892 3.49719C12.9007 2.76355 11.3389 2.37662 9.76042 2.37662C4.40369 2.37662 0.0455267 6.74185 0.0455267 12.1075C0.0455267 12.9854 0.162526 13.8531 0.392869 14.692C0.172792 15.0498 0.0455267 15.4707 0.0455267 15.921C0.0455267 16.6524 0.381127 17.3064 0.905796 17.7378C1.05148 19.4292 0.722 21.0777 0.428658 22.541C0.146847 23.9469 -0.119285 25.2749 0.0562844 26.4659C0.229745 27.6421 0.819804 28.5595 1.84974 29.2544C0.680516 31.0638 0.0455267 33.1888 0.0455267 35.3456V35.4775C0.0455267 35.8664 0.360314 36.1817 0.748648 36.1817H21.7851C22.1734 36.1817 22.4882 35.8664 22.4882 35.4775V35.3456C22.4882 33.1888 21.8532 31.0636 20.684 29.2543C21.7183 28.5565 22.3091 27.6342 22.4797 26.4499C22.6506 25.2631 22.3856 23.9409 22.105 22.5411C21.8116 21.0778 21.4822 19.4292 21.6278 17.7377C22.1524 17.3063 22.4881 16.6524 22.4881 15.921C22.4881 15.6676 22.4474 15.4236 22.3729 15.1948C22.4228 15.1874 22.4725 15.1772 22.5217 15.1635L24.4929 14.6341C25.642 15.278 26.9396 15.617 28.2652 15.617C32.5299 15.617 35.9995 12.1417 35.9995 7.86995C35.9995 3.59825 32.53 0.122803 28.2652 0.122803V0.122803ZM16.4037 26.9683L16.5216 30.4918L15.0844 31.1233C14.8615 31.2212 14.705 31.4276 14.6707 31.669C14.6364 31.9103 14.7291 32.1523 14.9158 32.3087L16.4716 33.6111L15.0793 34.7732H13.4723L15.4541 26.455C15.7818 26.6094 16.0985 26.7811 16.4037 26.9683ZM10.5071 34.7732L9.30015 29.7069H13.2336L12.0266 34.7732H10.5071ZM7.45439 34.7732L6.06207 33.6111L7.61787 32.3087C7.80462 32.1523 7.89736 31.9103 7.86304 31.669C7.82873 31.4276 7.67222 31.2212 7.44933 31.1233L6.01208 30.4918L6.12999 26.9682C6.43514 26.781 6.75183 26.6093 7.07956 26.4549L9.0613 34.7732H7.45439ZM13.7399 25.8336C13.8711 25.868 14.0012 25.9049 14.13 25.9443L13.5691 28.2984H8.96463L8.40374 25.9442C8.53101 25.9053 8.65954 25.8688 8.78927 25.8348C9.58661 26.0584 10.4153 26.1735 11.2567 26.1735C11.4144 26.1735 11.5731 26.1694 11.7316 26.1613C12.4233 26.1257 13.0955 26.0137 13.7399 25.8336ZM11.6596 24.7546C7.45516 24.9708 3.77067 21.722 3.44716 17.5131C3.41896 17.1461 3.11346 16.8629 2.74608 16.8629H2.39212C1.87357 16.8629 1.45177 16.4403 1.45177 15.921C1.45177 15.4016 1.87364 14.979 2.39234 14.979L2.52375 14.979L4.87731 16.6361V17.1061C4.87731 18.384 5.91526 19.4236 7.191 19.4236H8.67016C9.84908 19.4236 10.8242 18.5356 10.9656 17.3924H11.5681C11.7095 18.5356 12.6846 19.4236 13.8636 19.4236H15.3427C16.6185 19.4236 17.6564 18.3839 17.6564 17.1061V16.636L20.0098 14.9789L20.1415 14.979C20.6601 14.979 21.0819 15.4015 21.0819 15.9209C21.0819 16.4403 20.66 16.8628 20.1415 16.8628H19.7876C19.4202 16.8628 19.1147 17.1461 19.0865 17.513C18.7848 21.4393 15.5919 24.5525 11.6596 24.7546ZM18.0116 9.83994H20.7845C20.8214 9.98094 20.8626 10.1207 20.9074 10.2593C21.0226 10.7636 21.082 11.2847 21.082 11.8151C21.082 12.4494 20.9957 13.0715 20.8281 13.6733C20.6109 13.6066 20.3804 13.5705 20.1417 13.5705L19.7892 13.5703C19.7887 13.5703 19.7882 13.5703 19.7877 13.5703C19.4505 13.5703 19.1761 13.2955 19.1761 12.9577C19.1761 12.5688 18.8613 12.2534 18.4729 12.2534H17.8409C16.0572 12.2534 14.6056 10.8025 14.6 9.01714L14.6288 8.37273C15.4769 9.27526 16.6795 9.83994 18.0116 9.83994ZM13.8965 11.4667C14.7183 12.7839 16.1791 13.662 17.8408 13.662H17.8962C18.0015 13.9449 18.1687 14.1975 18.3807 14.4044L17.2207 15.2212C16.953 14.954 16.584 14.7886 16.1772 14.7886H13.0292C12.3113 14.7886 11.7118 15.3036 11.5782 15.984H10.9557C10.8221 15.3036 10.2224 14.7886 9.50462 14.7886H6.35661C5.94978 14.7886 5.58085 14.9541 5.3131 15.2212L4.15316 14.4045C4.36515 14.1976 4.53236 13.9449 4.63768 13.662H9.95223C11.6138 13.662 13.0748 12.7839 13.8965 11.4667ZM16.2502 16.2703V17.1061C16.2502 17.6074 15.8431 18.0151 15.3427 18.0151H13.8636C13.3631 18.0151 12.956 17.6073 12.956 17.1061V16.2703C12.956 16.2313 12.9902 16.1971 13.0292 16.1971H16.1771C16.2161 16.1971 16.2502 16.2314 16.2502 16.2703ZM9.57761 16.2703V17.1061C9.57761 17.6074 9.1705 18.0151 8.67016 18.0151H7.191C6.69059 18.0151 6.28355 17.6073 6.28355 17.1061V16.2703C6.28355 16.2313 6.31765 16.1971 6.35661 16.1971H9.50455C9.5435 16.1971 9.57761 16.2314 9.57761 16.2703ZM20.2018 8.4314H18.0116C16.2277 8.4314 14.7761 6.98045 14.7706 5.19491L14.7824 4.93095C16.3871 5.06828 17.8796 5.75607 19.0388 6.90629C19.5015 7.36541 19.8909 7.87854 20.2018 8.4314ZM9.76049 3.78517C11.019 3.78517 12.2642 4.07328 13.3886 4.62008L13.3503 5.47732C13.2022 7.13089 11.8117 8.4314 10.1229 8.4314H7.94636C7.55803 8.4314 7.24324 8.7467 7.24324 9.13567C7.24324 9.52464 7.55803 9.83994 7.94636 9.83994H10.1229C11.3059 9.83994 12.3868 9.39463 13.2081 8.66296L13.1941 8.97559C13.1939 8.98101 13.1943 8.98622 13.1942 8.99158C13.194 8.99679 13.1934 9.00179 13.1934 9.007C13.1934 10.7971 11.7394 12.2536 9.95223 12.2536H4.06091C3.67258 12.2536 3.35779 12.5689 3.35779 12.9578C3.35779 13.2956 3.08343 13.5705 2.74594 13.5705L2.3922 13.5706C2.11636 13.5706 1.85171 13.6189 1.60561 13.7068C1.50366 13.1824 1.45184 12.6474 1.45184 12.1076C1.45177 7.51852 5.17902 3.78517 9.76049 3.78517ZM1.80741 22.8183C2.0251 21.732 2.26092 20.5496 2.32898 19.2935C2.79579 21.0491 3.77369 22.6328 5.1722 23.8624C5.6878 24.3157 6.24376 24.7057 6.82988 25.0299C5.24209 25.7219 3.81503 26.7821 2.68737 28.1215C1.05219 27.056 1.26804 25.5093 1.80741 22.8183ZM4.6869 28.0475L4.59072 30.9215C4.58108 31.2095 4.74758 31.4744 5.01104 31.5901L5.84551 31.9567L4.51386 33.0716C4.3539 33.2056 4.26151 33.4037 4.26165 33.6125C4.2618 33.8213 4.35447 34.0193 4.51464 34.153L5.2577 34.7732H1.46822C1.61946 32.1334 2.81097 29.7411 4.6869 28.0475ZM17.2761 34.7732L18.0191 34.153C18.1793 34.0193 18.272 33.8213 18.2721 33.6125C18.2723 33.4037 18.1799 33.2056 18.0199 33.0716L16.6883 31.9567L17.5227 31.5901C17.7862 31.4744 17.9527 31.2096 17.9431 30.9215L17.8469 28.0478C19.7227 29.7414 20.9143 32.1338 21.0656 34.7731H17.2761V34.7732ZM19.8465 28.1216C18.719 26.7824 17.2919 25.7222 15.7042 25.0301C17.8917 23.8254 19.5462 21.7619 20.2046 19.2909C20.2724 20.5479 20.5084 21.7313 20.7263 22.8183C21.2664 25.5128 21.4822 27.0563 19.8465 28.1216ZM28.2652 14.2083C27.096 14.2083 25.9538 13.8863 24.9621 13.2772C24.8505 13.2086 24.7231 13.1732 24.5945 13.1732C24.5335 13.1732 24.4723 13.1812 24.4123 13.1972L22.4088 13.7354C22.5879 13.0661 22.767 12.3974 22.9462 11.7285C22.9963 11.5418 22.9674 11.3427 22.8665 11.1779C22.615 10.767 22.4133 10.3301 22.2623 9.87643C22.2135 9.6705 22.157 9.46703 22.0928 9.26624C21.9904 8.81065 21.9372 8.34259 21.9372 7.86981C21.9372 4.37478 24.776 1.53135 28.2653 1.53135C31.7546 1.53135 34.5934 4.37478 34.5934 7.86981C34.5934 11.3648 31.7546 14.2083 28.2652 14.2083Z" fill="#0E4E7F"/>
<path d="M4.78244 9.83765C5.17077 9.83765 5.48556 9.52286 5.48556 9.13452C5.48556 8.74619 5.17077 8.4314 4.78244 8.4314H4.78195C4.39361 8.4314 4.0791 8.74619 4.0791 9.13452C4.0791 9.52286 4.3941 9.83765 4.78244 9.83765Z" fill="#0E4E7F"/>
<path d="M31.0772 7.16553H25.4521C25.0638 7.16553 24.749 7.48032 24.749 7.86865C24.749 8.25699 25.0638 8.57178 25.4521 8.57178H31.0772C31.4655 8.57178 31.7803 8.25699 31.7803 7.86865C31.7803 7.48032 31.4655 7.16553 31.0772 7.16553Z" fill="#0E4E7F"/>
<path d="M31.0772 4.34155H25.4521C25.0638 4.34155 24.749 4.65634 24.749 5.04468C24.749 5.43301 25.0638 5.7478 25.4521 5.7478H31.0772C31.4655 5.7478 31.7803 5.43301 31.7803 5.04468C31.7803 4.65634 31.4655 4.34155 31.0772 4.34155Z" fill="#0E4E7F"/>
<path d="M31.0772 9.98267H25.4521C25.0638 9.98267 24.749 10.2975 24.749 10.6858C24.749 11.0741 25.0638 11.3889 25.4521 11.3889H31.0772C31.4655 11.3889 31.7803 11.0741 31.7803 10.6858C31.7803 10.2975 31.4655 9.98267 31.0772 9.98267Z" fill="#0E4E7F"/>
</svg>
