<svg width="35" height="21" viewBox="0 0 35 21" fill="none" xmlns="http://www.w3.org/2000/svg">
<path fill-rule="evenodd" clip-rule="evenodd" d="M24.9512 0.209004C27.9857 0.922919 29.1465 2.72192 30.6018 5.19802H24.9512V0.209004ZM7.21725 5.40594C7.81139 5.40594 8.24265 5.6967 8.24265 6.37624C8.24265 6.94937 7.78522 7.41422 7.22019 7.41584H1.02539C0.459023 7.41584 0 7.8815 0 8.45545C0 9.02966 0.459023 9.49505 1.02539 9.49505H10.2539C10.8256 9.49505 11.2833 9.96016 11.2833 10.5347C11.2833 11.1089 10.8243 11.5743 10.2579 11.5743H1.02539C0.459023 11.5743 0 12.0396 0 12.6139C0 13.1881 0.459023 13.6535 1.02539 13.6535H3.28125V16.7723C3.28125 17.3465 3.74027 17.8119 4.30664 17.8119H6.36784C6.73527 19.6469 8.3345 21 10.2197 21C12.1049 21 13.7042 19.6469 14.0716 17.8119H24.4831C24.8505 19.6469 26.4497 21 28.335 21C30.2202 21 31.8194 19.6469 32.1869 17.8119H33.9746C34.541 17.8119 35 17.3465 35 16.7723V10.5347C35 7.48434 31.8266 7.28183 31.8237 7.27723H23.9258C23.3594 7.27723 22.9004 6.81184 22.9004 6.23762V0H4.30664C3.74027 0 3.28125 0.465385 3.28125 1.0396V3.32673H2.05078C1.48441 3.32673 1.02539 3.79212 1.02539 4.36634C1.02539 4.94056 1.48441 5.40594 2.05078 5.40594H7.21725ZM29.6642 15.6672C30.3983 16.4114 30.3983 17.6186 29.6642 18.3628C28.4834 19.56 26.4551 18.7083 26.4551 17.0149C26.4551 15.3217 28.4834 14.47 29.6642 15.6672ZM11.549 15.6672C12.2831 16.4114 12.2831 17.6186 11.549 18.3628C10.3682 19.56 8.33984 18.7083 8.33984 17.0149C8.33984 15.3217 10.3682 14.47 11.549 15.6672Z" fill="#0E4D80"/>
</svg>
