<svg width="20" height="18" viewBox="0 0 20 18" fill="none" xmlns="http://www.w3.org/2000/svg">
<g clip-path="url(#clip0)">
<path d="M17.8153 0.285645C16.6097 0.285645 15.6284 1.42522 15.6278 2.82583V2.82619V10.4558H15.0022C14.8294 10.4558 14.6897 10.6181 14.6897 10.8189V12.9935C14.6897 13.1942 14.8294 13.3565 15.0022 13.3565H15.6272V13.7203C15.4544 13.7203 15.3147 13.8825 15.3147 14.0833C15.3147 14.2841 15.4544 14.4463 15.6272 14.4463V15.1724C15.6272 15.3732 15.7669 15.5355 15.9397 15.5355H16.0459C15.9062 16.1592 15.4222 16.6224 14.8425 16.6235C14.8415 16.6235 14.8409 16.6231 14.8403 16.6231H1.8728C1.18437 16.6231 0.624053 15.9722 0.624053 15.1724C0.624053 15.1699 0.622803 15.1677 0.622803 15.1652V3.55227C0.622803 3.07887 0.885928 2.67952 1.24968 2.52959V3.91349C1.24968 3.91494 1.24905 3.91567 1.24905 3.91712C1.24905 4.01768 1.28405 4.10844 1.34093 4.17415C1.39749 4.24023 1.47561 4.28089 1.56218 4.28089C1.56343 4.28089 1.56405 4.28016 1.5653 4.28016H1.87468V13.3547C1.87468 14.5556 2.71561 15.5322 3.74968 15.5322C4.78374 15.5322 5.62468 14.5556 5.62468 13.3547V4.2798H5.9378V13.3543C5.9378 14.5553 6.77874 15.5318 7.8128 15.5318C8.84655 15.5318 9.68718 14.5553 9.68718 13.3543V4.2798H10.0003V13.3543C10.0003 14.5553 10.8412 15.5318 11.8753 15.5318C12.9094 15.5318 13.7503 14.5553 13.7503 13.3543V4.2798H14.0584C14.0597 4.2798 14.0603 4.28052 14.0615 4.28052C14.1478 4.28052 14.2259 4.23986 14.2825 4.17415C14.3397 4.10808 14.3747 4.01732 14.3747 3.91676C14.3747 3.91531 14.374 3.91458 14.374 3.91313L14.3747 1.37476C14.3747 0.774295 13.9541 0.285645 13.4372 0.285645H2.18718C1.6703 0.285645 1.24968 0.774295 1.24968 1.37476V1.77374C0.536553 1.94183 -0.00219727 2.67517 -0.00219727 3.55227V15.1724C-0.00219727 15.1757 -0.000634766 15.1786 -0.000634766 15.1815C0.00405273 16.3777 0.842178 17.3492 1.8728 17.3492H14.8372C14.8384 17.3492 14.839 17.3499 14.8403 17.3499C15.7675 17.3499 16.5375 16.5636 16.6869 15.5355H16.8775C17.0503 15.5355 17.19 15.3732 17.19 15.1724V14.4463C17.3625 14.4456 17.5019 14.2837 17.5019 14.0833C17.5019 13.8829 17.3625 13.721 17.19 13.7203V13.3565H18.1275C18.3003 13.3565 18.44 13.1942 18.44 12.9935V9.36307C18.44 9.16231 18.3003 9.00003 18.1275 9.00003C17.9547 9.00003 17.815 9.16231 17.815 9.36307V10.4558H17.19V2.82619C17.19 2.42612 17.47 2.10084 17.8144 2.10084C18.159 2.10084 18.4394 2.42612 18.4394 2.82619V5.0066C18.4394 5.20736 18.5791 5.36964 18.7519 5.36964H19.6894C19.8622 5.36964 20.0019 5.20736 20.0019 5.0066V2.83055C20.0019 2.8291 20.0025 2.82837 20.0025 2.82692C20.0028 1.42595 19.0212 0.285645 17.8153 0.285645ZM4.99968 13.3543C4.99968 14.1545 4.43905 14.8057 3.74968 14.8057C3.0603 14.8057 2.49968 14.1545 2.49968 13.3543V5.7305H4.99968V13.3543ZM4.99968 5.00442H2.49968V4.2798H3.11811H3.11968H4.37155C4.3728 4.2798 4.37343 4.28052 4.37468 4.28052C4.37593 4.28052 4.37655 4.2798 4.3778 4.2798H4.99968V5.00442ZM3.43374 3.55372L3.43561 3.18923H4.06218V3.55372H3.43374ZM9.06218 13.3543C9.06218 14.1545 8.50155 14.8057 7.8128 14.8057C7.12343 14.8057 6.5628 14.1545 6.5628 13.3543V5.7305H9.06218V13.3543ZM9.06218 5.00442H6.5628V4.2798H7.18249H7.18405H8.43593C8.43718 4.2798 8.4378 4.28052 8.43905 4.28052C8.4403 4.28052 8.44093 4.2798 8.44218 4.2798H9.06218V5.00442ZM7.49811 3.55372L7.49999 3.18923H8.12655V3.55372H7.49811ZM13.1253 13.3543C13.1253 14.1545 12.5647 14.8057 11.8753 14.8057C11.1859 14.8057 10.6253 14.1545 10.6253 13.3543V5.7305H13.1253V13.3543ZM13.1253 5.00442H10.6253V4.2798H11.2469H11.2484H12.5003C12.5015 4.2798 12.5022 4.28052 12.5034 4.28052C12.5047 4.28052 12.5053 4.2798 12.5065 4.2798H13.1253V5.00442ZM11.5625 3.55372L11.5644 3.18923H12.1909V3.55372H11.5625ZM1.87468 1.37476C1.87468 1.17436 2.01468 1.01172 2.18718 1.01172H13.4372C13.6097 1.01172 13.7497 1.17436 13.7497 1.37476L13.749 3.55372H12.8159V2.82619C12.8159 2.62543 12.6762 2.46315 12.5034 2.46315H11.255C11.2544 2.46315 11.2541 2.46315 11.2534 2.46315C11.2103 2.46315 11.1694 2.47332 11.1322 2.49147C11.1047 2.5049 11.0822 2.52668 11.0597 2.5481C11.0515 2.55573 11.0406 2.56008 11.0331 2.5688C11.0147 2.59022 11.0031 2.61744 10.9897 2.64286C10.9825 2.65701 10.9712 2.66863 10.9659 2.68388C10.9581 2.70566 10.9578 2.73035 10.9534 2.75358C10.949 2.77718 10.9409 2.79896 10.9409 2.82401L10.9375 3.55372H8.75155V2.82619C8.75155 2.62543 8.61186 2.46315 8.43905 2.46315H7.19061C7.18999 2.46315 7.18968 2.46315 7.18905 2.46315C7.14593 2.46315 7.10499 2.47332 7.0678 2.49147C7.0403 2.5049 7.0178 2.52668 6.9953 2.5481C6.98718 2.55573 6.97624 2.56008 6.96874 2.5688C6.9503 2.59022 6.93874 2.61744 6.9253 2.64286C6.91811 2.65701 6.90686 2.66863 6.90155 2.68388C6.89374 2.70566 6.89343 2.73035 6.88905 2.75358C6.88468 2.77718 6.87655 2.79896 6.87655 2.82401L6.87311 3.55372H4.68718V2.82619C4.68718 2.62543 4.54749 2.46315 4.37468 2.46315H3.12624C3.12561 2.46315 3.1253 2.46315 3.12468 2.46315C3.08155 2.46315 3.04061 2.47332 3.00343 2.49147C2.97593 2.5049 2.95343 2.52668 2.93093 2.5481C2.9228 2.55573 2.91186 2.56008 2.90436 2.5688C2.88593 2.59022 2.87436 2.61744 2.86093 2.64286C2.85374 2.65701 2.84249 2.66863 2.83718 2.68388C2.82936 2.70566 2.82905 2.73035 2.82468 2.75358C2.8203 2.77718 2.81218 2.79896 2.81218 2.82401L2.80874 3.55372H1.87468V1.37476ZM16.5653 14.8094H16.4059C16.4047 14.8094 16.404 14.8087 16.4028 14.8087C16.4015 14.8087 16.4009 14.8094 16.3997 14.8094H16.2519V14.4463H16.565V14.8094H16.5653ZM16.5653 13.7203H16.2522V13.3565H16.5653V13.7203ZM17.8153 11.1819V12.6304H15.3147V11.1819H17.8153ZM19.3772 4.64356H19.0647V4.27907H19.3772V4.64356ZM19.3772 2.82619V3.55299H19.0647V2.82619C19.0647 2.02605 18.504 1.37476 17.8147 1.37476C17.1259 1.37476 16.5653 2.02605 16.5653 2.82619V10.4558H16.2528V2.82692C16.2528 1.82602 16.9537 1.01172 17.8153 1.01172C18.6759 1.01172 19.3762 1.82457 19.3775 2.82401C19.3775 2.82474 19.3772 2.82546 19.3772 2.82619Z" fill="#000"/>
<path d="M3.12439 9.36231H4.37439C4.5472 9.36231 4.68689 9.20003 4.68689 8.99927C4.68689 8.79851 4.5472 8.63623 4.37439 8.63623H3.12439C2.95158 8.63623 2.81189 8.79851 2.81189 8.99927C2.81189 9.20003 2.95158 9.36231 3.12439 9.36231Z" fill="#000"/>
<path d="M4.06189 9.72607H3.43689C3.26408 9.72607 3.12439 9.88835 3.12439 10.0891C3.12439 10.2899 3.26408 10.4522 3.43689 10.4522H4.06189C4.2347 10.4522 4.37439 10.2899 4.37439 10.0891C4.37439 9.88835 4.2347 9.72607 4.06189 9.72607Z" fill="#000"/>
<path d="M7.1875 9.36231H8.4375C8.61031 9.36231 8.75 9.20003 8.75 8.99927C8.75 8.79851 8.61031 8.63623 8.4375 8.63623H7.1875C7.01469 8.63623 6.875 8.79851 6.875 8.99927C6.875 9.20003 7.01469 9.36231 7.1875 9.36231Z" fill="#000"/>
<path d="M8.125 9.72607H7.5C7.32719 9.72607 7.1875 9.88835 7.1875 10.0891C7.1875 10.2899 7.32719 10.4522 7.5 10.4522H8.125C8.29781 10.4522 8.4375 10.2899 8.4375 10.0891C8.4375 9.88835 8.29781 9.72607 8.125 9.72607Z" fill="#000"/>
<path d="M11.25 9.36231H12.5C12.6728 9.36231 12.8125 9.20003 12.8125 8.99927C12.8125 8.79851 12.6728 8.63623 12.5 8.63623H11.25C11.0772 8.63623 10.9375 8.79851 10.9375 8.99927C10.9375 9.20003 11.0772 9.36231 11.25 9.36231Z" fill="#000"/>
<path d="M12.1875 9.72607H11.5625C11.3897 9.72607 11.25 9.88835 11.25 10.0891C11.25 10.2899 11.3897 10.4522 11.5625 10.4522H12.1875C12.3603 10.4522 12.5 10.2899 12.5 10.0891C12.5 9.88835 12.3603 9.72607 12.1875 9.72607Z" fill="#000"/>
</g>
<defs>
<clipPath id="clip0">
<rect width="20" height="17.736" fill="#000"/>
</clipPath>
</defs>
</svg>
