<svg width="24" height="18" viewBox="0 0 24 18" fill="none" xmlns="http://www.w3.org/2000/svg">
<g clip-path="url(#clip0)">
<path d="M23.4996 3.51196C23.3638 3.02719 23.099 2.5883 22.7336 2.24196C22.3579 1.88496 21.8974 1.62959 21.3956 1.49996C19.5176 1.00496 11.9936 1.00496 11.9936 1.00496C8.85697 0.969272 5.72107 1.12623 2.60364 1.47496C2.10183 1.61417 1.6422 1.87525 1.26564 2.23496C0.895641 2.59096 0.627641 3.02996 0.487641 3.51096C0.151334 5.3227 -0.0120674 7.1623 -0.000359379 9.00496C-0.0123594 10.846 0.150641 12.685 0.487641 14.499C0.624641 14.978 0.891641 15.415 1.26264 15.768C1.63364 16.121 2.09564 16.376 2.60364 16.511C4.50664 17.005 11.9936 17.005 11.9936 17.005C15.1343 17.0407 18.2742 16.8837 21.3956 16.535C21.8974 16.4053 22.3579 16.15 22.7336 15.793C23.1036 15.44 23.3666 15.001 23.4986 14.523C23.8437 12.7119 24.0115 10.8716 23.9996 9.02796C24.0256 7.17656 23.858 5.32752 23.4996 3.51096V3.51196ZM9.60164 12.429V5.58196L15.8616 9.00596L9.60164 12.429Z" fill="#DA0706"/>
</g>
<defs>
<clipPath id="clip0">
<rect width="24" height="18" fill="white"/>
</clipPath>
</defs>
</svg>
