<svg width="55" height="44" viewBox="0 0 55 44" fill="none" xmlns="http://www.w3.org/2000/svg">
<path d="M53.4498 20.8671C53.4498 20.7397 53.4498 20.5949 53.444 20.4269C53.4382 19.9577 53.4266 19.4306 53.4151 18.8688C53.3687 17.2527 53.2876 15.6424 53.1602 14.1248C52.9864 12.0338 52.7316 10.2903 52.384 8.98123C52.0173 7.6151 51.2984 6.36915 50.2992 5.36793C49.3 4.36671 48.0555 3.64528 46.6901 3.27575C45.0509 2.83554 41.8419 2.56329 37.3239 2.39532C35.1749 2.31422 32.8754 2.26209 30.5758 2.23313C29.7707 2.22155 29.0234 2.21575 28.3515 2.20996H26.6486C25.9767 2.21575 25.2294 2.22155 24.4243 2.23313C22.1247 2.26209 19.8252 2.31422 17.6762 2.39532C13.1582 2.56909 9.94342 2.84133 8.30997 3.27575C6.94414 3.64438 5.69918 4.3655 4.69985 5.36686C3.70053 6.36822 2.98193 7.61465 2.61609 8.98123C2.26275 10.2903 2.01368 12.0338 1.83991 14.1248C1.71248 15.6424 1.63139 17.2527 1.58505 18.8688C1.56767 19.4306 1.56188 19.9577 1.55609 20.4269C1.55609 20.5949 1.55029 20.7397 1.55029 20.8671V21.1915C1.55029 21.3189 1.55029 21.4638 1.55609 21.6317C1.56188 22.1009 1.57346 22.628 1.58505 23.1899C1.63139 24.8059 1.71248 26.4162 1.83991 27.9338C2.01368 30.0249 2.26855 31.7684 2.61609 33.0774C3.35751 35.852 5.53543 38.0415 8.30997 38.7829C9.94342 39.2231 13.1582 39.4954 17.6762 39.6633C19.8252 39.7444 22.1247 39.7966 24.4243 39.8255C25.2294 39.8371 25.9767 39.8429 26.6486 39.8487H28.3515C29.0234 39.8429 29.7707 39.8371 30.5758 39.8255C32.8754 39.7966 35.1749 39.7444 37.3239 39.6633C41.8419 39.4896 45.0567 39.2173 46.6901 38.7829C49.4647 38.0415 51.6426 35.8578 52.384 33.0774C52.7373 31.7684 52.9864 30.0249 53.1602 27.9338C53.2876 26.4162 53.3687 24.8059 53.4151 23.1899C53.4324 22.628 53.4382 22.1009 53.444 21.6317C53.444 21.4638 53.4498 21.3189 53.4498 21.1915V20.8671ZM49.2793 21.1683C49.2793 21.29 49.2793 21.4232 49.2735 21.5796C49.2677 22.0314 49.2561 22.5295 49.2446 23.0682C49.204 24.609 49.1229 26.1498 49.0013 27.5805C48.8449 29.4456 48.6248 30.9748 48.3525 32.0001C47.9934 33.3381 46.9392 34.3981 45.607 34.7514C44.3906 35.0758 41.3264 35.3364 37.1617 35.4928C35.0533 35.5739 32.7827 35.6261 30.5179 35.655C29.7243 35.6666 28.9887 35.6724 28.3284 35.6724H26.6717L24.4822 35.655C22.2174 35.6261 19.9526 35.5739 17.8384 35.4928C13.6737 35.3307 10.6037 35.0758 9.39314 34.7514C8.0609 34.3923 7.00669 33.3381 6.64757 32.0001C6.37533 30.9748 6.15522 29.4456 5.99882 27.5805C5.87718 26.1498 5.80188 24.609 5.75554 23.0682C5.73817 22.5295 5.73237 22.0256 5.72658 21.5796C5.72658 21.4232 5.72079 21.2842 5.72079 21.1683V20.8903C5.72079 20.7687 5.72079 20.6354 5.72658 20.4791C5.73237 20.0272 5.74396 19.5291 5.75554 18.9904C5.79609 17.4496 5.87718 15.9089 5.99882 14.4782C6.15522 12.613 6.37533 11.0839 6.64757 10.0586C7.00669 8.72057 8.0609 7.66057 9.39314 7.30723C10.6095 6.98286 13.6737 6.72221 17.8384 6.56581C19.9468 6.48472 22.2174 6.43259 24.4822 6.40363C25.2758 6.39204 26.0114 6.38625 26.6717 6.38625H28.3284L30.5179 6.40363C32.7827 6.43259 35.0475 6.48472 37.1617 6.56581C41.3264 6.728 44.3964 6.98286 45.607 7.30723C46.9392 7.66636 47.9934 8.72057 48.3525 10.0586C48.6248 11.0839 48.8449 12.613 49.0013 14.4782C49.1229 15.9089 49.1982 17.4496 49.2446 18.9904C49.2619 19.5291 49.2677 20.033 49.2735 20.4791C49.2735 20.6354 49.2793 20.7745 49.2793 20.8903V21.1683ZM22.3449 28.7911L35.7831 20.9714L22.3449 13.2676V28.7911Z" fill="#495057"/>
</svg>
